<svg width="400" height="281" viewBox="0 0 400 281" fill="none" xmlns="http://www.w3.org/2000/svg">
<path d="M211.048 60.8351C206.04 61.0338 201.618 57.4835 198.884 53.2823C196.149 49.0812 194.638 44.1785 192.36 39.6968C188.626 32.3466 182.384 25.9397 174.439 23.9522C166.493 21.9645 156.927 25.4175 153.345 32.9819C149.829 40.4294 151.884 50.909 145.275 55.7454C140.368 59.3541 133.587 57.425 128.138 54.9659C122.888 52.6003 116.689 49.7749 110.892 51.9144C105.005 54.089 101.99 60.2466 102.54 66.2755C103.208 73.5438 107.399 79.5262 111.548 85.2628C113.36 87.7687 115.063 90.4575 115.661 93.4934C117.981 105.458 98.7664 106.888 91.3679 109.114C87.4112 110.306 83.3022 112.048 80.7627 115.458C75.7552 122.188 80.1694 129.25 87.1492 131.826C91.8836 133.587 97.0209 133.572 101.731 135.334C104.63 136.413 107.353 138.249 108.907 140.914C112.872 147.711 106.563 154.102 100.993 157.236C84.4933 166.527 63.7511 179.449 70.7277 201.746C76.2157 219.283 93.2866 223.328 109.329 218.145C118.466 215.19 127.067 210.35 136.673 208.955C142.923 208.031 149.654 208.281 155.072 211.921C162.794 217.112 163.275 226.73 163.556 235.152C163.813 242.771 165.157 251.107 171.298 256.318C178.864 262.732 192.302 263.586 201.521 261.103C210.942 258.57 216.411 251.75 218.454 242.518C219.31 238.66 219.981 234.672 221.899 231.216C225.63 224.493 234.325 222.759 240.2 227.708C242.813 229.902 244.813 232.74 247.357 235.012C253.177 240.214 262.169 242.066 269.622 239.739C275.122 238.02 279.911 233.422 280.775 227.74C281.427 223.453 279.872 219.131 277.778 215.343C273.56 207.716 264.107 196.948 271.341 188.214C277.251 181.063 289.079 183.343 297.165 183.312C307.47 183.272 318.848 180.346 325.645 172.099C331.052 165.537 332.607 155.556 328.067 148.366C324.942 143.408 319.528 140.381 314.161 137.999C308.794 135.618 303.134 133.615 298.575 129.916C294.016 126.218 290.708 120.267 292.063 114.566C294.884 102.679 311.384 101.549 312.481 87.7956C313.263 78.1814 305.731 71.1548 296.322 72.0316C290.353 72.5851 269.934 83.2247 268.63 70.3754C268.266 66.8016 270.904 63.6839 272.439 60.4063C275.954 52.8693 273.149 43.1613 266.54 38.4146C259.931 33.6678 250.348 33.9484 243.493 38.5548C239.587 41.166 236.583 44.9229 233.075 48.0679C227.072 53.4421 221.95 62.8538 211.079 60.8428" fill="#DAE0F4"/>
<path d="M211.047 60.7103C199.075 60.6557 196.559 46.0101 192.094 37.8065C188.04 30.363 181.09 23.804 172.375 22.6699C164.641 21.6606 155.969 25.2421 152.477 32.4791C150.739 36.0879 150.29 40.1098 149.622 44.0109C148.919 48.1068 147.973 52.7172 144.227 55.149C139.977 57.9043 134.419 56.3688 130.102 54.6034C125.543 52.7327 121.145 50.3165 116.11 50.0281C107.059 49.5527 100.629 57.6121 101.391 66.2755C101.817 71.1197 103.813 75.6284 106.356 79.709C109.04 84.0388 113.161 88.0956 114.411 93.15C116.149 100.165 109.083 103.283 103.536 104.905C97.4224 106.689 90.8635 107.208 85.1762 110.243C81.3874 112.262 78.0747 115.699 77.4851 120.111C76.9851 123.86 78.7426 127.461 81.5359 129.913C85.3717 133.276 90.3247 134.071 95.1844 134.959C100.043 135.848 105.793 137.247 108.172 142.103C112.672 151.296 98.4851 157.037 92.5978 160.634C80.118 168.257 66.4927 179.551 68.1138 195.759C68.8951 203.655 72.606 211.418 79.0515 216.231C85.059 220.721 92.8329 222.155 100.192 221.449C109.958 220.518 118.575 215.752 127.715 212.646C136.7 209.587 149.246 207.393 156.664 215.046C162.989 221.57 161.606 231.543 162.524 239.79C163.489 248.597 167.094 256.645 175.501 260.554C183.11 264.089 192.297 264.556 200.422 262.752C208.419 260.978 214.809 255.901 218.001 248.332C221.192 240.764 220.297 228.519 230.368 226.384C235.305 225.339 239.031 228.024 242.215 231.449C245.399 234.875 248.531 238.102 252.996 239.969C261.012 243.32 271.302 242.697 277.653 236.286C279.152 234.818 280.329 233.055 281.111 231.11C281.893 229.165 282.263 227.079 282.196 224.984C281.973 220.105 279.637 215.713 277.118 211.648C273.071 205.113 266.031 195.401 272.965 188.335C278.77 182.427 288.875 184.484 296.267 184.598C304.911 184.734 314.149 182.965 321.313 177.902C328.552 172.785 333.118 164.219 331.981 155.26C330.751 145.516 322.634 140.088 314.281 136.432C305.93 132.777 292.946 128.131 293.188 116.881C293.356 109.663 300.403 105.649 305.407 101.681C310.946 97.2933 314.746 91.4978 313.77 84.1441C312.739 76.4045 306.219 70.7923 298.45 70.535C292.954 70.3519 287.578 73.2047 282.317 74.4323C277.606 75.5426 269.317 76.4277 269.942 69.1243C270.157 66.6535 271.743 64.475 272.884 62.3549C273.975 60.3991 274.714 58.2675 275.067 56.0571C275.612 52.1536 275.001 48.1762 273.309 44.6149C269.598 36.6608 260.973 32.6935 252.426 33.812C242.911 35.0591 236.141 42.6235 230.129 49.4669C225.11 55.1919 219.715 61.7898 211.169 60.3556C210.634 60.2621 210.387 61.0805 210.942 61.1741C214.493 61.7703 217.911 61.5326 221.137 59.8178C224.239 58.1693 226.809 55.6556 229.204 53.1264C232.052 50.1138 235.375 47.5924 238.305 44.6578C241.922 41.0412 245.727 37.8884 250.805 36.7036C259.79 34.6147 269.129 39.0809 271.875 48.1185C272.529 50.1947 272.765 52.3791 272.571 54.5465C272.377 56.714 271.755 58.8218 270.743 60.7493C268.817 64.4009 266.446 67.8694 267.618 72.1835C269.18 77.9045 275.157 78.3956 280.118 77.6165C285.508 76.7784 290.485 74.292 295.833 73.3956C297.694 73.0883 299.6 73.1841 301.421 73.6768C303.243 74.1694 304.936 75.0471 306.387 76.25C307.838 77.4538 309.013 78.9545 309.831 80.6508C310.649 82.3471 311.092 84.1985 311.129 86.0806C311.262 93.5754 305.817 97.8426 300.356 101.958C295.278 105.797 290.161 110.532 290.325 117.446C290.563 127.621 300.169 133.424 308.434 137.009C316.934 140.7 327.414 144.671 329.094 155.042C330.606 164.356 324.954 172.934 316.985 177.306C309.255 181.558 300.442 182.104 291.821 181.725C284.536 181.406 275.547 181.043 270.391 187.209C257.27 202.969 290.766 219.52 275.833 234.525C269.059 241.345 257.281 240.643 249.817 235.358C245.95 232.631 243.567 228.231 239.563 225.651C238.037 224.681 236.328 224.034 234.541 223.751C232.755 223.467 230.928 223.553 229.176 224.002C227.402 224.477 225.743 225.302 224.296 226.43C222.848 227.557 221.643 228.963 220.751 230.565C218.348 234.821 217.969 239.707 216.622 244.31C214.227 252.494 208.27 258.231 199.93 260.14C191.868 261.984 182.204 261.466 174.93 257.253C166.375 252.299 165.164 242.541 164.833 233.574C164.528 225.822 163.622 217.069 157.161 211.812C149.68 205.72 138.973 206.488 130.235 208.975C120.793 211.66 112.106 216.878 102.337 218.433C95.0314 219.602 87.1023 218.652 80.9769 214.283C74.3833 209.606 70.7075 201.157 70.688 193.187C70.688 185.459 74.6724 178.767 80.0359 173.44C85.4807 168.05 92.0627 163.896 98.6568 160.053C104.907 156.394 114.106 150.357 110.625 141.737C106.493 131.487 93.6881 134.211 85.6919 129.862C81.9456 127.824 78.8911 123.856 80.1098 119.417C81.4224 114.636 86.1844 112.11 90.5515 110.672C98.8754 107.944 118.286 107.165 116.911 94.3038C116.407 89.5687 113.266 85.8239 110.641 82.0627C107.887 78.115 105.293 73.9256 104.164 69.2023C103.083 64.6698 103.59 59.7009 106.786 56.0883C110.485 51.9065 116.001 51.7585 121.02 53.329C128.872 55.7842 138.598 62.6823 146.43 56.213C152.516 51.1466 151.239 41.9999 153.531 35.1682C156.399 26.6372 166.384 22.6621 174.755 24.9497C184.469 27.6077 190.274 36.3139 194.164 44.9618C197.352 52.0391 201.903 61.2052 211.036 60.9402C211.064 60.935 211.09 60.92 211.11 60.8975C211.128 60.875 211.139 60.8468 211.139 60.8174C211.139 60.7882 211.128 60.7599 211.11 60.7374C211.09 60.715 211.064 60.6998 211.036 60.6947L211.047 60.7103Z" fill="#DAE0F4"/>
<path d="M210.268 206.726C209.572 205.557 209.838 207.143 210.1 208.733C210.455 208.187 210.807 207.642 210.268 206.726Z" fill="#73BDE2"/>
<path d="M211.783 205.837C211.489 205.27 210.989 204.836 210.384 204.625C210.147 204.566 209.9 204.554 209.658 204.59C209.417 204.627 209.184 204.71 208.975 204.838C208.766 204.965 208.584 205.132 208.44 205.33C208.297 205.528 208.194 205.751 208.138 205.99C207.919 207.034 208.232 208.168 208.404 209.201C208.496 209.53 208.684 209.825 208.945 210.048C209.205 210.272 209.525 210.413 209.865 210.455C210.207 210.501 210.555 210.446 210.867 210.296C211.178 210.148 211.439 209.912 211.619 209.618C211.911 209.202 212.117 208.734 212.228 208.238C212.372 207.41 212.214 206.559 211.783 205.837C211.544 205.44 211.159 205.151 210.71 205.034C210.261 204.917 209.784 204.98 209.381 205.21C208.985 205.451 208.698 205.836 208.58 206.284C208.462 206.731 208.522 207.206 208.748 207.61C208.846 207.798 208.849 207.79 208.748 207.579C208.777 207.655 208.799 207.734 208.814 207.813C208.787 207.533 208.775 207.482 208.779 207.669C208.83 207.369 208.834 207.314 208.779 207.498C208.697 207.782 208.994 207.108 208.779 207.517C208.717 207.63 208.642 207.74 208.572 207.849L211.787 208.269L211.67 207.552C211.67 207.439 211.634 207.326 211.619 207.213C211.603 207.1 211.619 206.823 211.619 207.244C211.619 207.088 211.58 206.933 211.575 206.777C211.575 206.71 211.575 206.644 211.575 206.578V206.512C211.575 206.708 211.535 206.902 211.458 207.083C211.381 207.264 211.268 207.428 211.126 207.564L210.346 208.016H210.369H209.435L208.755 207.626C208.83 207.704 208.811 207.681 208.708 207.556C208.494 207.279 208.708 207.579 208.732 207.626C208.968 208.028 209.354 208.319 209.805 208.437C210.256 208.554 210.736 208.489 211.138 208.254C211.541 208.019 211.833 207.634 211.951 207.184C212.069 206.733 212.003 206.254 211.767 205.853L211.783 205.837Z" fill="#73BDE2"/>
<path d="M218.438 242.513C219.219 238.967 219.856 235.316 221.442 232.061C217.145 223.737 212.849 215.646 209.93 210.728L209.961 211.547C199.274 219.041 177.93 230.577 163.762 238.854C164.352 245.359 166.106 251.937 171.282 256.313C178.849 262.728 192.286 263.582 201.504 261.099C210.926 258.582 216.395 251.778 218.438 242.513Z" fill="#73BDE2"/>
<path d="M220.131 242.997C220.823 239.828 221.397 236.582 222.67 233.578C223.369 231.929 223.061 231.407 222.28 229.844C221.498 228.281 220.675 226.726 219.862 225.202C217.151 220.043 214.42 214.883 211.467 209.859C210.608 208.398 208.124 208.975 208.19 210.744L208.221 211.563L209.092 210.05C194.444 220.273 178.307 228.367 162.893 237.354C162.626 237.507 162.404 237.728 162.251 237.994C162.098 238.261 162.019 238.563 162.022 238.87C162.573 244.595 163.901 250.386 167.565 254.977C170.94 259.202 175.979 261.696 181.154 262.974C191.108 265.429 203.537 264.631 211.678 257.841C216.194 254.073 218.858 248.64 220.151 242.997C220.654 240.799 217.268 239.879 216.76 242.066C215.764 246.411 213.979 250.585 210.838 253.831C207.698 257.078 203.522 258.975 199.092 259.891C190.42 261.68 178.94 260.924 172.084 254.684C167.643 250.643 166.092 244.642 165.537 238.87L164.663 240.382C173.475 235.249 182.393 230.308 191.225 225.202C195.409 222.778 199.58 220.331 203.686 217.778C205.498 216.649 207.303 215.499 209.077 214.306C210.58 213.296 211.783 212.696 211.71 210.744L208.413 211.628C212.507 218.593 216.225 225.787 219.925 232.962V231.212C218.303 234.684 217.553 238.367 216.741 242.085C216.264 244.264 219.654 245.207 220.131 242.997Z" fill="#73BDE2"/>
<path d="M210.098 208.733C209.742 209.283 209.39 209.828 209.929 210.744C210.625 211.921 210.363 210.327 210.098 208.733Z" fill="#73BDE2"/>
<path d="M208.58 207.848C208.042 208.611 207.822 209.553 207.966 210.475C208.119 211.383 208.819 212.603 209.787 212.837C211.15 213.164 212.154 212.057 212.13 210.775C212.081 209.933 211.969 209.095 211.795 208.269C211.646 207.361 210.471 206.772 209.63 207.042C209.189 207.178 208.816 207.477 208.588 207.878C208.36 208.279 208.294 208.752 208.404 209.201L208.522 209.914C208.522 210.027 208.557 210.14 208.572 210.253C208.588 210.366 208.572 210.666 208.572 210.225C208.572 210.378 208.611 210.534 208.619 210.69C208.615 210.757 208.615 210.825 208.619 210.892V210.946C208.62 210.749 208.66 210.554 208.737 210.373C208.814 210.192 208.927 210.028 209.069 209.89L209.849 209.443H210.756C210.877 209.466 211.537 209.801 211.572 210.027C211.543 209.96 211.505 209.899 211.459 209.844C211.209 209.454 211.537 210.125 211.412 209.754C211.307 209.446 211.412 210.023 211.412 209.836C211.412 209.648 211.314 210.292 211.412 209.957C211.51 209.622 211.248 210.234 211.357 210.062C211.466 209.89 211.533 209.754 211.63 209.602C211.862 209.2 211.925 208.723 211.807 208.275C211.689 207.826 211.398 207.442 210.998 207.205C210.59 206.978 210.11 206.918 209.658 207.038C209.207 207.158 208.82 207.448 208.58 207.848Z" fill="#73BDE2"/>
<path d="M150.626 102.422L129.532 132.761C129.099 133.389 128.637 134.118 128.802 134.866C128.971 135.377 129.283 135.83 129.7 136.172C155.828 161.841 182.546 186.896 209.857 211.337C233.114 185.763 254.134 154.266 274.755 126.534C264.107 115.809 261.184 110.743 249.122 94.9314C222.56 91.7553 176.735 96.6971 150.626 102.441" fill="#73BDE2"/>
<path d="M209.858 211.336C223.869 195.931 237.068 178.374 249.861 160.782C238.627 161.699 227.395 162.627 216.166 163.565L200.013 164.913L162.76 168.03C178.265 182.661 193.964 197.096 209.858 211.336Z" fill="#303757"/>
<path d="M217.395 163.639L193.059 165.299C199.466 179.637 204.485 196.013 209.93 210.744C211.067 195.518 214.407 178.62 217.395 163.639Z" fill="#0088CC"/>
<path d="M162.118 167.407L193.06 165.299C187.966 153.901 182.579 142.647 176.899 131.537C172.36 142.501 166.653 156.449 162.118 167.407Z" fill="#0088CC"/>
<path d="M225.269 127.937C222.535 139.804 219.801 151.71 217.395 163.643L249.351 161.46C243.367 150.322 234.191 136.9 225.269 127.937Z" fill="#0088CC"/>
<path d="M246.692 95.0993C225.207 92.9635 192.653 95.6366 167.489 99.6545L152.676 102.437C161.01 111.697 169.351 120.955 177.704 130.213L197.41 100.368C197.918 99.5889 198.539 98.7545 199.457 98.6374C200.375 98.521 201.211 99.1948 201.898 99.8344C211.057 108.406 218.965 118.216 225.395 128.977C230.832 121 239.683 106.732 246.692 95.0993Z" fill="#DAE0F4"/>
<path d="M167.728 99.2299L154.337 101.744C161.994 103.522 169.41 106.207 176.428 109.741C176.878 110.024 177.399 110.175 177.931 110.177C178.357 110.102 178.759 109.927 179.103 109.666L198.846 97.2306C199.361 96.8433 199.968 96.5948 200.608 96.5097C201.47 96.4746 202.232 97.0284 202.924 97.5463C208.796 101.916 215.296 105.372 222.205 107.8C223.01 108.144 223.88 108.312 224.756 108.291C225.517 108.175 226.25 107.922 226.919 107.543C233.257 104.423 239.423 100.969 245.393 97.1955L246.916 94.6739C225.455 92.5344 192.893 95.2 167.728 99.2299Z" fill="white"/>
<path d="M150.387 102.281L134.134 125.345L129.973 131.249C129.071 132.528 127.688 133.978 128.544 135.626C129.364 137.184 131.239 138.603 132.485 139.827C134.469 141.775 136.455 143.724 138.442 145.672C153.268 160.134 168.307 174.373 183.559 188.39C192.106 196.262 200.712 204.069 209.375 211.812C209.504 211.936 209.677 212.005 209.856 212.005C210.036 212.005 210.207 211.936 210.337 211.812C229.087 191.157 245.219 168.339 261.508 145.763C266.075 139.434 270.653 133.112 275.31 126.853C275.381 126.731 275.41 126.587 275.392 126.446C275.373 126.305 275.309 126.174 275.207 126.074C269.47 120.212 264.145 113.961 259.27 107.367C256.181 103.244 253.313 98.7702 249.895 94.8963C248.88 93.7269 246.645 93.9963 245.169 93.8672C243.106 93.6918 241.036 93.5635 238.966 93.4777C219.282 92.5933 199.399 94.2575 179.891 96.8135C170.024 98.0963 160.137 99.5806 150.442 101.834C149.661 102.016 149.989 103.205 150.774 103.042C169.119 99.3008 187.692 96.7739 206.372 95.4769C215.993 94.7948 225.649 94.4172 235.278 94.659C239.282 94.7598 243.282 94.9665 247.266 95.3754C248.728 95.5277 248.985 95.859 249.891 97.0553C250.735 98.162 251.574 99.2717 252.407 100.384C253.948 102.436 255.487 104.494 257.02 106.557C262.384 113.735 267.957 120.61 274.27 126.982L274.169 126.202C257.583 148.592 241.86 171.636 224.329 193.331C219.504 199.302 214.539 205.155 209.375 210.841H210.337C195.563 197.614 180.959 184.203 166.524 170.607C159.355 163.852 152.226 157.055 145.137 150.217C141.588 146.795 138.049 143.368 134.52 139.936C133.618 139.055 132.719 138.166 131.786 137.302C131.419 136.959 131.039 136.619 130.672 136.277C129.891 135.528 129.731 135.602 129.7 134.449C129.661 133.089 130.528 132.247 131.263 131.148L133.728 127.551L150.84 102.562C151.044 102.266 150.563 101.993 150.36 102.281H150.387Z" fill="#303757"/>
<path d="M131.399 136.413C167.125 128.658 203.848 128.506 240.231 128.128L271.68 127.8C271.705 127.796 271.728 127.782 271.744 127.763C271.76 127.743 271.769 127.719 271.769 127.693C271.769 127.668 271.76 127.643 271.744 127.624C271.728 127.604 271.705 127.591 271.68 127.586C253.087 127.784 234.493 127.898 215.903 128.24C197.629 128.58 179.333 129.281 161.164 131.386C151.155 132.523 141.209 134.158 131.363 136.288C131.281 136.288 131.317 136.428 131.399 136.413Z" fill="#303757"/>
<path d="M152.866 102.067L177.885 129.85C177.895 129.86 177.906 129.867 177.919 129.871C177.931 129.875 177.945 129.877 177.958 129.875C177.972 129.873 177.984 129.868 177.996 129.86C178.007 129.852 178.016 129.842 178.022 129.831C181.749 124.213 185.469 118.595 189.182 112.975L194.74 104.554C195.596 103.256 196.44 101.95 197.311 100.657C197.646 100.127 198.007 99.6156 198.397 99.1245L201.182 98.782C201.873 99.0231 202.745 100.154 203.284 100.676C211.901 108.97 219.377 118.367 225.518 128.622C225.529 128.641 225.546 128.656 225.565 128.667C225.584 128.678 225.605 128.683 225.628 128.683C225.649 128.683 225.671 128.678 225.69 128.667C225.709 128.656 225.725 128.641 225.737 128.622C233.224 117.614 240.322 106.355 247.034 94.8454C247.046 94.8163 247.046 94.7835 247.036 94.7537C247.025 94.7238 247.005 94.6984 246.978 94.682C246.95 94.6663 246.918 94.6604 246.887 94.6663C246.855 94.6716 246.827 94.6887 246.807 94.7134C241.369 104.045 235.673 113.221 229.717 122.239C229.092 123.182 226.483 128.194 225.385 127.91C224.995 127.812 223.822 125.388 223.581 125.013C222.842 123.845 222.092 122.722 221.319 121.596C216.044 113.878 209.977 106.73 203.217 100.266C202.319 99.4134 201.112 97.9283 199.682 98.0999C198.049 98.3104 197.022 100.687 196.268 101.834L187.284 115.473C185.854 117.635 184.422 119.798 182.987 121.962L180.858 125.209L179.576 127.157C179.264 127.636 178.756 128.887 178.296 129.106C177.237 129.613 175.479 126.931 174.881 126.269L171.756 122.796L165.506 115.855L153.006 101.969C152.94 101.895 152.827 102.009 152.897 102.083L152.866 102.067Z" fill="#303757"/>
<path d="M163.322 164.43L172.678 141.924C173.42 140.136 174.166 138.35 174.916 136.565L176.111 133.708C176.631 132.461 176.81 131.6 177.616 133.194C179.293 136.522 180.922 139.874 182.506 143.249C189.146 157.361 195.034 171.803 200.635 186.348C203.76 194.466 206.795 202.619 209.822 210.775C209.832 210.8 209.849 210.821 209.872 210.834C209.895 210.849 209.922 210.854 209.948 210.85C209.975 210.846 209.999 210.834 210.017 210.815C210.036 210.796 210.047 210.77 210.049 210.744C211.268 194.508 214.142 178.452 217.522 162.54C219.166 154.781 220.943 147.052 222.737 139.332C223.034 138.066 224.69 128.42 225.674 128.506C226.116 128.537 227.284 130.162 227.592 130.49C228.222 131.16 228.845 131.835 229.463 132.516C230.765 133.966 232.045 135.444 233.303 136.951C238.787 143.593 243.607 150.755 247.693 158.334C247.775 158.483 248.002 158.334 247.92 158.202C241.885 147.06 234.284 136.836 225.35 127.84C225.336 127.825 225.318 127.814 225.298 127.809C225.279 127.803 225.259 127.803 225.239 127.808C225.219 127.813 225.201 127.824 225.187 127.838C225.173 127.852 225.163 127.87 225.158 127.89C220.08 149.8 214.721 171.698 211.635 193.998C211.299 196.435 210.992 198.875 210.713 201.316C210.616 202.186 209.478 209.852 209.873 210.008C209.483 209.859 208.948 207.728 208.803 207.33L207.299 203.273C206.369 200.784 205.438 198.295 204.506 195.806C200.553 185.307 196.498 174.843 192.174 164.488C187.51 153.311 182.541 142.24 176.994 131.467C176.948 131.374 176.826 131.413 176.795 131.495C172.3 142.469 167.786 153.434 163.252 164.391C163.252 164.437 163.307 164.458 163.322 164.414V164.43Z" fill="#303757"/>
<path d="M153.821 117.414C152.234 120.064 150.664 122.725 149.106 125.396C149.087 125.427 149.083 125.465 149.093 125.5C149.102 125.535 149.125 125.565 149.157 125.583C149.188 125.601 149.225 125.606 149.261 125.596C149.296 125.587 149.326 125.563 149.344 125.532C150.881 122.851 152.396 120.158 153.891 117.453C153.893 117.449 153.895 117.443 153.896 117.438C153.896 117.433 153.896 117.428 153.895 117.422C153.893 117.418 153.89 117.413 153.887 117.409C153.884 117.405 153.88 117.402 153.875 117.399C153.871 117.396 153.866 117.395 153.861 117.394C153.855 117.393 153.85 117.394 153.845 117.396C153.84 117.396 153.835 117.399 153.831 117.402C153.827 117.405 153.823 117.41 153.821 117.414Z" fill="white"/>
<path d="M186.509 124.683C190.806 118.249 195.572 111.537 198.364 104.293C198.462 104.047 198.084 103.903 197.951 104.121C195.837 107.406 194.13 110.988 192.231 114.398C190.334 117.808 188.29 121.183 186.146 124.468C185.993 124.698 186.361 124.908 186.513 124.683H186.509Z" fill="white"/>
<path d="M199.037 117.804L200.498 115.731C200.545 115.664 200.44 115.606 200.393 115.669L198.83 117.687C198.74 117.804 198.943 117.928 199.034 117.804H199.037Z" fill="white"/>
<path d="M234.799 122.746C238.917 116.881 243.369 110.75 246.21 104.14C246.255 104.062 246.269 103.969 246.246 103.88C246.222 103.792 246.165 103.717 246.087 103.671C246.008 103.625 245.914 103.612 245.825 103.635C245.737 103.658 245.662 103.715 245.616 103.793C241.745 109.955 238.584 116.506 234.49 122.563C234.362 122.757 234.667 122.929 234.799 122.746Z" fill="white"/>
<path d="M246.525 119.094C246.916 118.685 247.307 118.287 247.698 117.863C247.725 117.83 247.739 117.787 247.738 117.745C247.736 117.702 247.718 117.661 247.687 117.631C247.657 117.6 247.616 117.582 247.573 117.581C247.531 117.579 247.488 117.593 247.455 117.621C247.037 118.011 246.646 118.4 246.244 118.814C246.065 118.996 246.35 119.281 246.525 119.094Z" fill="white"/>
<path d="M192.158 163.533C197.236 178.393 202.544 193.226 208.685 207.689C208.787 207.93 209.208 207.754 209.11 207.509C203.29 192.922 197.462 178.323 192.224 163.514C192.224 163.471 192.142 163.49 192.158 163.533Z" fill="white"/>
<path d="M135.904 129.519C138.822 126.195 141.568 122.742 144.208 119.195C146.775 115.754 149.806 112.001 151.357 107.967C151.528 107.519 150.884 107.348 150.642 107.667C148.083 111.023 146.251 115.072 143.954 118.634C141.483 122.41 138.778 126.03 135.857 129.472C135.825 129.503 135.857 129.554 135.904 129.519Z" fill="white"/>
<path d="M145.371 124.819C147.53 122.076 149.489 119.181 151.23 116.155C151.248 116.122 151.251 116.084 151.241 116.049C151.23 116.013 151.207 115.983 151.175 115.964C151.142 115.946 151.104 115.94 151.068 115.949C151.031 115.958 151 115.98 150.98 116.011C149.256 119.042 147.375 121.981 145.348 124.819C145.348 124.819 145.348 124.846 145.371 124.819Z" fill="white"/>
<path d="M149.169 153.604C150.038 150.216 151.097 146.88 152.341 143.611C153.595 140.326 155.239 137.24 156.586 134.005C156.79 133.51 155.989 133.194 155.731 133.646C152.341 139.628 150.439 146.896 149.009 153.561C149.003 153.582 149.006 153.605 149.017 153.623C149.028 153.643 149.046 153.656 149.067 153.662C149.089 153.668 149.111 153.665 149.131 153.654C149.149 153.643 149.163 153.625 149.169 153.604Z" fill="#DAE0F4"/>
<path d="M154.149 152.457C156.079 146.335 158.739 140.376 161.61 134.659C161.665 134.55 161.501 134.453 161.446 134.562C158.598 140.384 156.317 146.363 154.11 152.446C154.11 152.469 154.142 152.481 154.149 152.446V152.457Z" fill="#DAE0F4"/>
<path d="M200.168 129.418C196.235 136.179 192.911 143.275 190.234 150.622C190.136 150.887 190.563 151.012 190.66 150.739C193.26 143.392 196.453 136.266 200.207 129.433C200.207 129.433 200.207 129.402 200.183 129.433L200.168 129.418Z" fill="#DAE0F4"/>
<path d="M204.637 131.53C200.68 139.663 196.598 147.757 192.879 156.004C192.781 156.226 193.102 156.421 193.211 156.199C197.27 148.104 200.981 139.83 204.801 131.623C204.852 131.514 204.688 131.417 204.637 131.53Z" fill="#DAE0F4"/>
<path d="M247.083 129.648C245.591 133.178 244.087 136.698 242.431 140.17C242.322 140.396 242.658 140.587 242.763 140.365C244.361 136.857 245.857 133.315 247.107 129.671C247.107 129.651 247.087 129.648 247.083 129.671V129.648Z" fill="#DAE0F4"/>
<path d="M250.681 130.466L246.204 139.971C246.118 140.146 246.387 140.298 246.461 140.123L250.704 130.481C250.704 130.481 250.704 130.45 250.681 130.481V130.466Z" fill="#DAE0F4"/>
<path d="M133.056 133.716C139.634 132.196 146.267 131.062 152.946 130.096C156.349 129.604 159.763 129.215 163.189 128.892C166.431 128.584 169.783 128.525 172.954 127.824C173.345 127.734 173.22 127.188 172.865 127.153C169.439 126.783 165.834 127.282 162.427 127.679C159.278 128.043 156.14 128.481 153.013 128.993C146.263 130.149 139.588 131.7 133.021 133.638C133.01 133.641 133.001 133.649 132.997 133.658C132.992 133.667 132.99 133.678 132.993 133.689C132.996 133.699 133.004 133.708 133.013 133.713C133.023 133.718 133.034 133.719 133.044 133.716H133.056Z" fill="#DAE0F4"/>
<path d="M183.884 127.64C196.548 126.667 209.192 127.484 221.86 127.002C222.071 127.002 222.273 126.918 222.422 126.769C222.571 126.62 222.655 126.419 222.655 126.208C222.655 125.998 222.571 125.796 222.422 125.648C222.273 125.499 222.071 125.415 221.86 125.415C209.243 124.983 196.379 125.911 183.879 127.614V127.64H183.884Z" fill="#DAE0F4"/>
<path d="M232.322 126.639C238.638 126.008 244.724 125.314 251.072 125.567C254.138 125.692 257.2 125.711 260.263 125.91C263.431 126.116 266.619 126.499 269.79 126.588C269.94 126.584 270.085 126.528 270.197 126.428C270.309 126.328 270.381 126.19 270.401 126.042C270.422 125.893 270.389 125.742 270.307 125.616C270.226 125.49 270.102 125.396 269.958 125.353C263.981 123.896 257.185 123.661 251.072 124.141C244.857 124.632 238.419 125.31 232.322 126.588C232.294 126.588 232.298 126.643 232.322 126.639Z" fill="#DAE0F4"/>
<path d="M176.891 135.875C175.23 141.005 173.311 146.048 171.141 150.984C170.122 153.299 169.11 155.622 168.016 157.906C166.962 160.128 165.672 162.298 164.856 164.617C164.606 165.33 165.637 165.654 166.028 165.104C167.536 162.953 168.54 160.381 169.602 157.988C170.602 155.728 171.555 153.452 172.419 151.129C174.247 146.149 175.805 141.078 177.134 135.93C177.137 135.9 177.13 135.87 177.113 135.845C177.097 135.82 177.072 135.802 177.043 135.794C177.014 135.786 176.984 135.789 176.956 135.802C176.929 135.814 176.907 135.836 176.896 135.864L176.891 135.875Z" fill="#DAE0F4"/>
<path d="M164.601 166.589C164.601 166.562 164.656 166.538 164.675 166.527L164.746 166.48C164.752 166.477 164.758 166.473 164.762 166.468C164.767 166.463 164.77 166.456 164.772 166.449C164.773 166.443 164.773 166.435 164.771 166.428C164.769 166.422 164.766 166.416 164.761 166.41C164.756 166.406 164.75 166.401 164.744 166.399C164.737 166.397 164.73 166.396 164.723 166.398C164.717 166.398 164.71 166.401 164.704 166.405C164.699 166.41 164.694 166.415 164.691 166.422L164.644 166.496C164.644 166.496 164.609 166.566 164.581 166.569C164.555 166.573 164.555 166.569 164.581 166.601C164.609 166.632 164.617 166.601 164.617 166.601L164.601 166.589Z" fill="#DAE0F4"/>
<path d="M226.381 130.505C225.518 135.454 224.428 140.349 223.174 145.221C221.92 150.092 220.225 154.862 219.025 159.737C218.842 160.478 219.861 160.712 220.139 160.045C222.092 155.322 223.174 150.107 224.209 145.123C225.209 140.298 225.889 135.404 226.408 130.509C226.408 130.509 226.385 130.489 226.381 130.509V130.505Z" fill="#DAE0F4"/>
<path d="M219.381 161.538C219.388 161.538 219.395 161.535 219.4 161.53C219.405 161.525 219.408 161.518 219.408 161.511C219.408 161.504 219.405 161.497 219.4 161.492C219.395 161.487 219.388 161.484 219.381 161.484C219.374 161.484 219.366 161.487 219.361 161.492C219.356 161.497 219.354 161.504 219.354 161.511C219.354 161.518 219.356 161.525 219.361 161.53C219.366 161.535 219.374 161.538 219.381 161.538Z" fill="#DAE0F4"/>
<path d="M169.74 171.168C175.314 176.511 180.939 181.796 186.486 187.146C189.221 189.785 191.912 192.467 194.779 194.941C197.751 197.517 200.947 199.863 204.041 202.299C204.146 202.384 204.298 202.244 204.193 202.143C201.459 199.508 198.838 196.772 196.068 194.189C193.197 191.508 190.115 189.049 187.119 186.508C181.221 181.499 175.501 176.308 169.818 171.063C169.767 171.017 169.689 171.094 169.74 171.141V171.168Z" fill="#0088CC"/>
<path d="M220.715 164.995C217.981 178.502 214.891 191.932 212.54 205.525C212.454 206.001 213.148 206.216 213.278 205.728C216.872 192.377 218.977 178.713 220.743 165.014C220.743 165.014 220.715 164.995 220.715 165.014V164.995Z" fill="#0088CC"/>
<path d="M211.998 208.113L212.162 207.989C212.172 207.978 212.177 207.966 212.177 207.951C212.177 207.938 212.172 207.925 212.162 207.914C212.155 207.902 212.142 207.893 212.127 207.889C212.113 207.886 212.097 207.888 212.084 207.895L211.924 208.02C211.917 208.023 211.911 208.028 211.905 208.033C211.9 208.039 211.896 208.045 211.893 208.053C211.891 208.06 211.89 208.068 211.891 208.075C211.892 208.084 211.894 208.091 211.899 208.098C211.902 208.104 211.908 208.11 211.914 208.114C211.92 208.119 211.927 208.122 211.935 208.123C211.943 208.125 211.95 208.125 211.958 208.123C211.966 208.122 211.972 208.118 211.978 208.113H211.998Z" fill="#0088CC"/>
<path d="M134.879 136.619C136.938 138.853 138.993 141.093 141.075 143.303C142.926 145.272 144.727 147.727 146.969 149.258C147.422 149.57 147.844 148.911 147.524 148.537C145.676 146.382 143.344 144.515 141.274 142.563C139.204 140.61 137.016 138.587 134.884 136.612L134.879 136.619Z" fill="white"/>
<path d="M151.83 153.658C153.548 155.304 155.157 157.06 156.646 158.916C158.134 160.747 159.255 162.964 160.884 164.663C161.275 165.054 161.81 164.563 161.595 164.118C160.631 162.099 158.79 160.381 157.298 158.748C155.611 156.912 153.802 155.209 151.951 153.541C151.869 153.471 151.755 153.584 151.833 153.658H151.83Z" fill="white"/>
<path d="M226.648 128.822C230.816 133.825 234.734 139.028 238.528 144.317C242.207 149.449 245.336 154.948 249.074 160.018C249.108 160.076 249.164 160.118 249.229 160.135C249.295 160.152 249.363 160.142 249.422 160.108C249.48 160.074 249.522 160.018 249.539 159.953C249.555 159.888 249.545 159.819 249.512 159.761C246.941 153.775 243.019 148.346 239.136 143.143C235.319 138.075 231.151 133.28 226.66 128.794C226.658 128.792 226.656 128.79 226.654 128.789C226.651 128.788 226.648 128.787 226.645 128.787C226.643 128.787 226.64 128.787 226.638 128.788C226.635 128.789 226.633 128.79 226.63 128.792C226.629 128.794 226.627 128.796 226.626 128.799C226.625 128.801 226.624 128.804 226.624 128.806C226.624 128.809 226.624 128.812 226.625 128.814C226.625 128.817 226.627 128.82 226.629 128.822H226.648Z" fill="white"/>
<path d="M176.504 130.115C178.949 135.661 181.254 141.269 183.64 146.842C184.911 149.801 186.164 152.768 187.398 155.743C188.465 158.311 189.425 161.047 190.789 163.467C190.837 163.538 190.907 163.59 190.989 163.614C191.071 163.639 191.158 163.634 191.237 163.601C191.316 163.567 191.381 163.508 191.419 163.432C191.459 163.357 191.471 163.27 191.453 163.187C190.07 157.516 187.156 151.92 184.785 146.608C182.266 141 179.434 135.516 176.551 130.088C176.551 130.057 176.488 130.088 176.504 130.115Z" fill="white"/>
<path d="M166.766 167.883C179.758 166.39 192.848 165.786 205.891 164.917C212.297 164.488 218.711 164.102 225.11 163.572C231.781 163.019 238.418 162.178 245.098 161.666C245.211 161.666 245.211 161.48 245.098 161.487C238.457 161.94 231.77 162.057 225.11 162.473C218.571 162.887 212.039 163.428 205.508 163.939C192.563 164.948 179.598 165.856 166.746 167.734C166.664 167.734 166.683 167.89 166.746 167.883H166.766Z" fill="white"/>
<path d="M153.25 103.123C157.5 106.783 160.942 111.448 164.622 115.661C168.438 120.037 172.184 124.768 176.438 128.728C176.872 129.117 177.692 128.584 177.301 128.065C173.754 123.389 169.403 119.164 165.395 114.885C161.587 110.817 157.907 106.257 153.286 103.1C153.286 103.1 153.258 103.1 153.286 103.123H153.25Z" fill="white"/>
<path d="M200.855 97.3828C204.93 102.398 209.086 107.363 213.234 112.325C215.379 114.889 217.481 117.496 219.484 120.162C221.32 122.582 222.969 125.36 225.058 127.566C225.496 128.026 226.129 127.442 225.89 126.928C224.578 124.098 222.292 121.471 220.383 119.008C218.472 116.545 216.449 114.059 214.406 111.65C210.172 106.65 205.563 101.907 200.914 97.3044C200.859 97.2544 200.792 97.3283 200.836 97.3828H200.855Z" fill="white"/>
<path d="M114.61 57.0976C111.384 57.2847 109.024 60.0439 108.618 63.1499C108.087 67.2147 110.462 70.9949 112.95 73.9802C116.282 77.9784 119.887 81.7358 121.739 86.7045C123.504 91.4358 123.364 96.8373 120.266 100.964C120.239 101.003 120.298 101.034 120.325 100.999C125.254 94.6276 123.09 86.2328 118.942 80.0948C116.462 76.4202 112.946 73.4696 110.821 69.5491C108.477 65.2116 108.657 58.2667 114.618 57.1483C114.649 57.1483 114.641 57.0937 114.618 57.0976H114.61Z" fill="white"/>
<path d="M123.395 103.123C126.442 101.143 128.606 98.2716 129.352 94.6895C129.38 94.5686 129.192 94.5141 129.169 94.635C128.838 96.3679 128.154 98.0141 127.159 99.4716C126.163 100.929 124.878 102.166 123.384 103.107L123.395 103.123Z" fill="white"/>
<path d="M113.021 109.857C108.29 111.681 103.255 111.9 98.341 113.042C95.044 113.821 88.638 115.497 87.9462 119.519C87.2275 123.704 92.8178 125.439 95.8253 126.257C101.544 127.816 106.189 130.154 109.626 135.158C109.689 135.244 109.829 135.158 109.771 135.072C107.695 131.831 104.742 129.24 101.255 127.598C97.6693 125.91 90.4425 125.598 88.8798 121.311C87.0477 116.245 96.9111 113.93 100.318 113.205C104.595 112.293 108.978 111.623 113.04 109.943C113.087 109.924 113.068 109.846 113.017 109.866L113.021 109.857Z" fill="white"/>
<path d="M113.934 139.695C114.192 140.883 114.375 142.087 114.587 143.284C114.587 143.303 114.618 143.284 114.614 143.284C114.391 142.091 114.137 140.899 113.954 139.699H113.934V139.695Z" fill="white"/>
<path d="M127.325 106.417C126.516 109.44 124.981 112.442 122.571 114.496C119.513 117.095 115.688 116.795 111.969 117.477C110.114 117.819 105.973 118.346 105.024 120.353C104.075 122.36 106.411 123.81 107.934 124.468C108.231 124.593 108.493 124.168 108.192 124.028C107.472 123.766 106.819 123.349 106.278 122.808C104.821 121.144 106.539 119.69 108.083 119.075C109.49 118.533 110.942 118.116 112.422 117.828C115.004 117.325 117.754 117.411 120.184 116.296C124.142 114.48 126.212 110.408 127.345 106.424H127.325V106.417Z" fill="white"/>
<path d="M114.271 125.653C115.445 126.531 116.231 127.828 116.467 129.273C116.467 129.343 116.584 129.316 116.572 129.246C116.31 127.79 115.49 126.493 114.287 125.63C114.287 125.63 114.259 125.63 114.287 125.653H114.271Z" fill="white"/>
<path d="M129.895 82.9008C130.739 78.9567 127.899 75.4963 125.923 72.3551C125.247 71.2717 124.551 70.2038 123.86 69.1282C123.614 68.7385 123.345 68.3722 123.126 67.9591C122.521 66.864 122.735 65.2116 123.857 64.5296C125.81 63.3176 128.513 65.5662 130.301 66.3067C130.556 66.4119 130.747 65.9715 130.493 65.8546C128.657 65.0206 126.798 63.4306 124.657 63.6994C123.317 63.867 122.067 64.7127 122.021 66.1469C121.989 67.1212 122.528 67.9279 123.032 68.7112C123.931 70.1103 124.892 71.4665 125.837 72.8306C127.868 75.7493 130.735 79.0657 129.876 82.8814C129.876 82.8814 129.895 82.9008 129.895 82.8814V82.9008Z" fill="white"/>
<path d="M137.474 74.697H137.146C137.131 74.7008 137.116 74.7097 137.107 74.7224C137.097 74.7343 137.092 74.75 137.092 74.7657C137.092 74.7813 137.097 74.7963 137.107 74.809C137.116 74.8209 137.131 74.8299 137.146 74.8336H137.474C137.49 74.8299 137.503 74.8209 137.513 74.809C137.522 74.7963 137.528 74.7813 137.528 74.7657C137.528 74.75 137.522 74.7343 137.513 74.7224C137.503 74.7097 137.49 74.7008 137.474 74.697Z" fill="white"/>
<path d="M141.643 63.7774C146.013 64.4554 150.064 61.6845 152.256 58.0485C155.169 53.216 155.334 47.3741 157.096 42.1285C159.049 36.349 163.525 31.8399 169.986 32.0933C176.057 32.331 179.966 37.0466 182.631 42.0077C185.525 47.3936 187.291 53.4304 191.716 57.8575C191.743 57.8849 191.781 57.9005 191.819 57.9009C191.858 57.9012 191.894 57.8863 191.922 57.8595C191.949 57.8326 191.965 57.796 191.965 57.7576C191.966 57.7192 191.951 57.6822 191.924 57.6548C184.935 50.0359 184.732 35.5734 173.646 31.8439C171.484 31.1442 169.18 31.005 166.949 31.4392C164.719 31.8736 162.636 32.8671 160.896 34.3263C156.818 37.8338 155.697 43.4068 154.646 48.3991C153.244 54.9814 150.302 64.6932 141.658 63.7501V63.7774H141.643Z" fill="white"/>
<path d="M138.165 73.2085C146.314 74.4516 154.415 70.7922 158.572 63.6291C159.533 61.9664 160.248 60.1732 160.693 58.3056C161.205 56.1817 161.435 53.9408 162.439 51.9649C164.782 47.3585 170.763 47.335 174.502 50.2112C174.548 50.2462 174.614 50.1605 174.568 50.1215C172.154 48.2314 168.771 47.3506 165.818 48.4536C162.263 49.7786 161.349 53.4459 160.611 56.774C158.29 67.2535 149.13 74.5608 138.169 73.1694C138.146 73.1694 138.142 73.2045 138.169 73.2085H138.165Z" fill="white"/>
<path d="M160.977 77.3396C159.189 79.3112 156.834 80.6821 154.234 81.2642C151.636 81.8209 148.98 81.2642 146.367 81.6262C144.692 81.8239 143.129 82.5642 141.917 83.7344C140.705 84.9045 139.913 86.4396 139.66 88.1038C139.622 88.3217 139.957 88.4112 139.989 88.1971C140.151 87.0083 140.601 85.8769 141.299 84.9001C141.997 83.9232 142.923 83.1299 143.996 82.5889C146.391 81.4396 149.136 81.8448 151.699 81.7277C153.462 81.6627 155.193 81.2411 156.787 80.4881C158.381 79.7351 159.805 78.6665 160.973 77.3471L160.977 77.3396Z" fill="white"/>
<path d="M118.242 134.09C119.428 135.531 120.133 137.303 120.261 139.161C120.389 141.02 119.933 142.872 118.957 144.46C118.872 144.597 119.086 144.722 119.169 144.585C120.164 142.965 120.613 141.069 120.449 139.175C120.286 137.281 119.518 135.49 118.258 134.063L118.242 134.09Z" fill="white"/>
<path d="M113.787 155.696C109.26 170.572 89.3254 171.628 83.1776 185.346C81.8023 188.465 81.3545 191.912 81.8888 195.277C82.4232 198.642 83.9157 201.783 86.1888 204.325C91.0523 209.653 97.9784 210.951 104.846 209.59C109.728 208.628 114.51 207.003 119.299 205.627C124.474 204.134 129.666 202.693 134.834 201.169C134.869 201.155 134.898 201.129 134.916 201.096C134.933 201.063 134.937 201.024 134.927 200.987C134.917 200.951 134.895 200.919 134.863 200.899C134.831 200.878 134.793 200.87 134.755 200.876C126.596 203.075 118.478 205.42 110.33 207.649C102.584 209.769 94.3687 210.888 87.9276 205.05C81.9388 199.622 80.7202 190.452 84.9075 183.573C88.556 177.583 95.0642 174.149 100.775 170.44C106.357 166.811 111.974 162.372 113.881 155.719C113.882 155.709 113.88 155.699 113.874 155.69C113.869 155.681 113.86 155.675 113.85 155.672C113.84 155.669 113.829 155.669 113.819 155.675C113.81 155.679 113.802 155.687 113.799 155.696H113.787Z" fill="white"/>
<path d="M144.024 201.009L146.95 202.349C146.989 202.349 147.024 202.307 146.985 202.291L144.032 200.997L144.024 201.009Z" fill="white"/>
<path d="M120.654 159.913C119.875 166.072 116.75 171.696 111.927 175.619C107.107 179.481 100.451 180.685 96.4195 185.568C93.5561 189.04 92.9815 193.654 96.0598 197.186C99.7046 201.367 105.771 201.507 110.712 199.913C110.749 199.901 110.78 199.875 110.798 199.84C110.817 199.806 110.82 199.766 110.81 199.729C110.799 199.691 110.775 199.659 110.742 199.639C110.708 199.619 110.668 199.613 110.63 199.622C104.896 201.157 96.8762 200.725 94.8292 193.892C92.9665 187.657 99.1852 183.265 103.904 180.802C108.462 178.425 112.696 176.168 115.876 172.006C118.551 168.49 120.212 164.313 120.681 159.925C120.681 159.925 120.658 159.925 120.654 159.925V159.913Z" fill="white"/>
<path d="M116.555 197.813L117.864 197.486C117.914 197.486 117.891 197.392 117.84 197.407L116.531 197.731C116.522 197.735 116.514 197.742 116.51 197.752C116.505 197.762 116.505 197.772 116.507 197.783C116.51 197.792 116.517 197.801 116.525 197.807C116.534 197.813 116.545 197.815 116.555 197.813Z" fill="white"/>
<path d="M143.998 198.573C150.56 197.766 157.252 200.213 162.15 204.548C167.631 209.388 169.716 215.912 170.131 223.028C170.521 229.84 169.853 237.003 172.263 243.527C173.279 246.24 174.884 248.694 176.961 250.715C179.04 252.737 181.54 254.275 184.283 255.219C190.888 257.557 198.373 255.94 203.603 251.357C203.744 251.232 203.541 251.033 203.4 251.15C197.658 255.908 189.435 257.272 182.666 253.878C176.314 250.694 172.807 244.381 171.807 237.553C170.822 230.826 171.623 223.948 170.205 217.287C169.083 211.81 166.035 206.912 161.611 203.48C156.61 199.606 150.288 197.838 143.998 198.554V198.573Z" fill="white"/>
<path d="M209.613 240.354C213.012 235.561 213.402 229.407 216.613 224.528C219.633 219.937 225.07 217.4 230.493 217.279C236.407 217.147 240.719 220.253 244.66 224.337C248.309 228.122 251.969 232.01 257.426 232.857C262.152 233.589 269.575 231.808 270.281 226.154C270.281 226.033 270.086 226.001 270.066 226.122C269.496 229.711 265.723 231.504 262.473 232.066C259.012 232.694 255.44 232.059 252.41 230.277C247.828 227.521 244.91 222.79 240.613 219.672C233.372 214.419 222.414 216.13 217.031 223.273C213.223 228.34 213.125 235.128 209.543 240.312C209.512 240.354 209.582 240.398 209.613 240.354Z" fill="white"/>
<path d="M267.815 213.125C262.346 204.633 257.717 193.639 263.326 184.033C266.061 179.356 270.499 176.874 275.877 176.663C280.651 176.48 285.381 177.018 290.162 176.62C298.366 175.938 306.784 173.607 313.029 168.046C315.994 165.408 318.639 161.939 319.155 157.913C319.686 153.755 317.319 150.868 314.022 148.681C305.287 142.89 294.74 139.78 287.682 131.701C287.588 131.592 287.436 131.748 287.525 131.857C293.385 138.822 301.893 142.239 309.627 146.612C314.193 149.192 319.67 152.29 318.529 158.397C317.604 163.346 313.6 167.36 309.545 170.034C301.908 175.069 292.358 176.418 283.373 176.269C278.877 176.203 274.127 175.49 269.869 177.322C266.381 178.826 263.779 181.834 262.233 185.245C257.901 194.812 262.44 205.011 267.787 213.133C267.787 213.152 267.834 213.133 267.822 213.11L267.815 213.125Z" fill="white"/>
<path d="M209.437 70.0869C212.542 70.9108 215.785 71.0859 218.961 70.6011C222.137 70.1162 225.178 68.9819 227.895 67.2692C234.066 63.3408 237.07 56.5636 241.379 50.9517C245.688 45.3397 253.133 39.7668 260.293 44.1433C263.926 46.3647 264.907 50.1605 263.496 54.0889C262.164 57.8068 259.895 61.0181 259.047 64.9309C257.657 71.3496 259.867 78.9604 266.68 81.1432C266.766 81.1701 266.801 81.038 266.719 81.0104C263.004 79.6858 260.437 76.3999 259.547 72.6161C258.484 68.0915 259.79 63.4266 261.762 59.3462C263.148 56.4779 264.984 53.5005 264.82 50.1879C264.743 48.9996 264.398 47.8441 263.814 46.8061C263.229 45.7681 262.419 44.8741 261.442 44.1901C256.687 40.6826 250.617 41.918 246.207 45.3397C240.348 49.8994 237.586 57.0313 232.86 62.5419C230.045 65.8517 226.357 68.3082 222.215 69.6329C218.072 70.9575 213.64 71.0973 209.422 70.0362C209.387 70.0362 209.372 70.079 209.422 70.0869H209.437Z" fill="white"/>
<path d="M281.434 84.144C284.519 83.3999 287.602 82.6432 290.692 81.9223C293.375 81.2992 298.156 80.0596 299.192 83.8246C299.934 86.5096 298.133 89.7089 296.692 91.8678C294.949 94.4753 292.621 96.241 290.149 98.1037C286.243 101.05 284.133 105.278 282.773 109.892C281.457 114.32 281.149 119.281 283.801 123.26C283.823 123.29 283.856 123.311 283.893 123.319C283.929 123.326 283.967 123.319 284 123.301C284.032 123.282 284.057 123.252 284.068 123.216C284.08 123.181 284.078 123.142 284.063 123.108C280.883 117.297 282.91 110.431 285.625 104.831C287.222 101.51 289.531 99.5343 292.402 97.3358C294.399 95.8455 296.117 94.0171 297.481 91.9343C299.273 89.1402 302 83.1343 297.66 81.147C295.82 80.3052 293.601 80.847 291.743 81.3343C288.309 82.2305 284.883 83.1775 281.453 84.0895C281.426 84.0895 281.453 84.1365 281.453 84.1283L281.434 84.144Z" fill="white"/>
<path d="M246.249 68.3098L248.401 67.8265C248.719 68.1453 248.965 68.5291 249.121 68.9516C249.276 69.3741 249.339 69.8253 249.303 70.274C249.284 70.767 249.24 71.2587 249.17 71.7471C249.09 72.6443 249.09 73.5467 249.17 74.444C249.328 76.1515 249.757 77.8232 250.44 79.397C251.791 82.4508 253.925 85.0948 256.627 87.0627C263.631 92.2463 272.178 92.1956 280.502 92.3515C280.6 92.3515 280.6 92.2075 280.502 92.2038C270.475 91.6657 259.065 91.4239 252.596 82.4023C251.296 80.6164 250.337 78.6067 249.768 76.4747C249.166 74.1361 249.631 72.0121 249.413 69.6933C249.275 68.2474 247.123 66.2794 246.249 68.3059V68.3098Z" fill="white"/>
<path d="M274.903 110.01C274.634 118.922 274.438 128.716 279.739 136.37C281.996 139.64 285.051 142.282 288.403 144.395C290.305 145.578 292.3 146.608 294.368 147.473C296.583 148.413 298.914 149.087 300.387 151.125C300.438 151.195 300.555 151.125 300.508 151.055C298.512 148.019 294.344 147.119 291.286 145.517C287.461 143.518 283.863 140.958 281.129 137.59C274.821 129.827 274.801 119.507 274.973 110.01C274.973 110.002 274.97 109.996 274.965 109.99C274.96 109.985 274.953 109.982 274.945 109.982C274.939 109.982 274.931 109.985 274.926 109.99C274.922 109.996 274.919 110.002 274.919 110.01H274.903Z" fill="white"/>
<path d="M304.66 157.945C305.209 160.053 304.963 162.289 303.969 164.228C302.976 166.168 301.303 167.676 299.269 168.467C299.066 168.545 299.156 168.881 299.363 168.798C301.449 167.964 303.154 166.395 304.155 164.387C305.156 162.381 305.383 160.077 304.793 157.913C304.785 157.899 304.773 157.888 304.758 157.881C304.744 157.875 304.728 157.874 304.712 157.878C304.696 157.882 304.683 157.891 304.673 157.904C304.663 157.917 304.659 157.933 304.66 157.948V157.945Z" fill="white"/>
<path d="M273.819 166.799C268.006 167.844 261.927 168.966 257.088 172.583C252.701 175.872 250.6 180.584 250.439 186.005C250.26 192.193 252.275 198.175 254.416 203.893C255.549 206.917 256.76 209.918 257.729 212.993C258.24 214.594 258.838 216.282 258.901 217.969C258.994 220.393 257.427 223.348 254.565 222.478C254.307 222.401 254.209 222.787 254.455 222.868C256.217 223.492 258.03 222.545 258.873 220.919C260.069 218.62 259.147 215.807 258.451 213.515C256.522 207.151 253.611 201.099 252.033 194.625C250.373 187.813 250.221 179.761 255.518 174.449C260.366 169.593 267.357 168.214 273.846 166.936C273.924 166.936 273.889 166.803 273.81 166.819L273.819 166.799Z" fill="white"/>
<path d="M141.169 191.34C144.163 189.708 147.495 188.791 150.904 188.661C154.314 188.531 157.707 189.192 160.817 190.592C166.551 193.242 170.618 198.41 173.317 203.99C176.274 210.14 177.548 216.902 178.875 223.546C179.973 229.065 180.661 236.2 184.657 240.549C187.481 243.628 193.348 244.591 195.614 240.335C195.633 240.302 195.639 240.263 195.63 240.225C195.62 240.188 195.596 240.156 195.563 240.137C195.53 240.117 195.49 240.111 195.453 240.121C195.416 240.13 195.384 240.154 195.364 240.187C193.801 242.697 190.501 243.137 187.895 242.136C184.657 240.877 182.973 237.369 181.978 234.279C179.895 227.849 179.114 221.079 177.469 214.532C174.911 204.29 169.742 193.098 158.915 189.516C155.988 188.563 152.895 188.223 149.831 188.519C146.766 188.815 143.795 189.74 141.106 191.234C141.036 191.274 141.106 191.379 141.169 191.34Z" fill="white"/>
<path d="M203.892 231.45C207.997 222.264 212.74 211.944 222.61 207.751C231.419 204.01 241.388 207.654 246.654 215.331C246.896 215.686 247.454 215.37 247.236 214.995C242.696 207.272 232.255 203.784 223.915 206.812C213.228 210.681 208.095 221.784 203.857 231.442C203.857 231.465 203.88 231.485 203.892 231.461V231.45Z" fill="white"/>
<path d="M129.001 149.66C132.908 158.323 131.06 168.175 125.735 175.813C124.489 177.586 123.09 179.248 121.555 180.778C120.329 182.014 118.856 183.074 117.849 184.504C116.595 186.281 116.438 189.138 118.829 189.999C118.946 190.042 119.028 189.851 118.915 189.801C115.571 188.335 118.044 184.78 119.696 183.277C121.104 182.051 122.443 180.751 123.708 179.379C126.079 176.705 127.998 173.663 129.387 170.373C132.146 163.748 132.172 156.101 129.091 149.609C129.063 149.554 128.981 149.609 129.009 149.66H129.001Z" fill="white"/>
<path d="M125.641 190.132L127.169 189.052C127.278 188.975 127.169 188.795 127.064 188.873L125.543 189.968C125.442 190.038 125.543 190.206 125.641 190.132Z" fill="white"/>
<path d="M146.219 183.421C153.899 179.384 163.344 181.188 170.083 186.274C176.821 191.36 181.27 199.189 184.071 206.999C184.114 207.112 184.298 207.065 184.258 206.948C181.391 198.565 177.195 190.401 169.629 185.334C162.809 180.763 153.583 179.349 146.192 183.386C146.188 183.387 146.185 183.39 146.183 183.393C146.18 183.396 146.178 183.399 146.177 183.402C146.175 183.406 146.175 183.41 146.175 183.414C146.176 183.417 146.177 183.421 146.179 183.425C146.181 183.428 146.184 183.431 146.186 183.433C146.19 183.435 146.193 183.437 146.198 183.437C146.201 183.438 146.205 183.438 146.209 183.437C146.213 183.437 146.216 183.435 146.219 183.433V183.421Z" fill="white"/>
<path d="M186.386 217.65C186.687 219.743 187.046 222.326 188.894 223.675C190.238 224.66 192.078 224.875 193.378 223.729C193.437 223.678 193.351 223.593 193.292 223.643C191.633 225.097 189.238 224.213 188.051 222.611C186.984 221.173 186.683 219.372 186.398 217.646L186.386 217.65Z" fill="white"/>
<path d="M221.691 202.139C223.552 200.492 225.731 199.244 228.093 198.469C230.456 197.694 232.953 197.41 235.43 197.634C236.631 197.743 237.817 197.984 238.965 198.351C240.254 198.768 241.395 199.551 242.668 199.96C243.778 200.319 244.734 200.027 245.156 198.928C245.269 198.635 244.766 198.421 244.64 198.713C243.859 200.463 241.254 198.69 240.149 198.292C239.258 197.979 238.343 197.739 237.414 197.575C235.54 197.23 233.625 197.172 231.734 197.404C227.969 197.875 224.452 199.528 221.691 202.128V202.139Z" fill="white"/>
<path d="M242.396 182.544C244.025 176.757 247.056 171.34 251.638 167.345C256.325 163.265 261.939 161.359 268.102 161.11C271.896 160.946 277.528 160.155 278.228 155.463C278.563 153.187 277.216 150.872 276.149 148.966C274.832 146.675 273.26 144.54 271.462 142.602C271.38 142.508 271.243 142.645 271.329 142.738C274.806 146.417 281.282 154.819 275.13 158.799C272.618 160.428 269.485 160.299 266.614 160.517C264.244 160.686 261.91 161.194 259.684 162.025C250.724 165.416 244.74 173.472 242.38 182.536L242.396 182.544Z" fill="white"/>
<path d="M249.599 91.997C252.307 95.1149 256.389 96.5448 260.096 98.1194C261.971 98.8985 264.022 99.5343 265.643 100.796C266.643 101.584 267.453 102.584 268.015 103.725C268.578 104.865 268.878 106.116 268.893 107.387C268.9 107.447 268.93 107.502 268.975 107.543C269.021 107.583 269.08 107.605 269.14 107.605C269.202 107.605 269.261 107.583 269.306 107.543C269.352 107.502 269.381 107.447 269.389 107.387C269.291 96.9343 255.19 98.053 249.635 91.9582C249.611 91.9306 249.576 91.9582 249.599 91.997Z" fill="white"/>
<path d="M273.277 98.6067C274.269 99.6425 275.003 100.898 275.419 102.269C275.835 103.641 275.922 105.091 275.672 106.502C275.648 106.639 275.863 106.697 275.883 106.56C276.105 105.125 275.987 103.657 275.535 102.276C275.084 100.895 274.313 99.6395 273.285 98.6104L273.277 98.6067Z" fill="white"/>
<path d="M208.91 82.0902C214.11 84.7208 219.969 85.0596 225.633 83.9917C229.039 83.3529 232.786 81.3499 236.278 82.273C239.485 83.1268 241.309 86.2604 242.84 88.9417C242.934 89.1089 243.192 88.9611 243.098 88.7895C241.891 86.5604 240.555 84.1671 238.367 82.7529C236.024 81.2327 233.375 81.6148 230.816 82.3626C223.473 84.5021 216.087 85.6051 208.942 82.0551C208.919 82.0551 208.895 82.0783 208.919 82.0902H208.91Z" fill="white"/>
<path d="M166.133 75.6366C168.972 72.8384 170.507 68.6217 174.039 66.5522C178.883 63.7151 182.941 67.698 185.813 71.2796C188.18 74.2297 190.629 76.5561 194.089 78.174C197.453 79.7322 201.094 80.7225 204.711 81.521C204.744 81.5307 204.78 81.5262 204.81 81.5098C204.839 81.4926 204.862 81.465 204.871 81.4314C204.881 81.3986 204.876 81.3635 204.859 81.3329C204.842 81.3031 204.814 81.2814 204.781 81.2717C200.535 80.1419 196.187 79.1516 192.406 76.8561C190.438 75.6411 188.689 74.1054 187.231 72.3122C185.738 70.5274 184.39 68.571 182.542 67.1368C180.07 65.235 176.965 64.5335 174.168 66.1703C170.496 68.3255 168.988 72.6631 166.105 75.5978C166.1 75.6031 166.097 75.6098 166.097 75.6172C166.097 75.6247 166.1 75.6314 166.105 75.6366C166.11 75.6419 166.118 75.6449 166.125 75.6449C166.132 75.6449 166.139 75.6419 166.145 75.6366H166.133Z" fill="white"/>
<path d="M138.22 94.2649C138.091 97.8425 135.744 99.2731 133.337 101.401C131.859 102.707 130.805 104.423 130.31 106.331C130.305 106.374 130.314 106.417 130.338 106.454C130.362 106.49 130.399 106.516 130.441 106.528C130.483 106.54 130.528 106.535 130.567 106.516C130.606 106.497 130.637 106.464 130.654 106.424C131.055 104.881 131.81 103.452 132.861 102.25C133.814 101.198 135.029 100.446 136.049 99.4679C136.756 98.8 137.316 97.9925 137.691 97.0962C138.067 96.2007 138.252 95.2358 138.232 94.2649H138.22Z" fill="white"/>
<path d="M140.993 154.979C142.072 157.51 142.345 160.31 141.774 162.999C141.302 165.189 139.798 166.924 139.274 169.052C138.181 173.479 142.981 173.234 145.845 173.651C146.008 173.674 146.083 173.428 145.915 173.401C145.134 173.276 144.352 173.249 143.571 173.186C142.978 173.163 142.387 173.082 141.809 172.945C140.223 172.501 139.517 171.086 139.622 169.469C139.735 167.731 141.274 166.012 141.782 164.321C142.675 161.216 142.414 157.894 141.043 154.967C141.043 154.944 140.997 154.967 141.005 154.967L140.993 154.979Z" fill="white"/>
<path d="M155.895 173.573C157.633 173.39 159.381 173.319 161.129 173.362C161.208 173.362 161.208 173.241 161.129 173.241C159.381 173.199 157.632 173.272 155.895 173.464C155.825 173.464 155.825 173.581 155.895 173.573Z" fill="white"/>
<path d="M187.551 201.122L186.477 199.173L187.551 201.122Z" fill="white"/>
<path d="M184.447 194.352C188.849 197.154 188.572 202.186 190.337 206.511C191.24 208.713 193.502 210.834 195.896 209.208C195.989 209.149 196.055 209.057 196.081 208.95C196.106 208.843 196.09 208.731 196.034 208.637C195.978 208.542 195.888 208.472 195.783 208.442C195.677 208.412 195.563 208.425 195.466 208.475C191.225 210.892 189.74 201.983 188.795 199.587C187.928 197.393 186.634 195.393 184.475 194.306C184.468 194.303 184.461 194.303 184.455 194.304C184.449 194.307 184.443 194.311 184.44 194.317C184.437 194.322 184.435 194.329 184.437 194.336C184.438 194.343 184.442 194.348 184.447 194.352Z" fill="white"/>
<path d="M233.087 189.957C233.456 190.163 233.886 190.233 234.302 190.156C234.717 190.079 235.093 189.86 235.364 189.536C236.188 188.639 236.094 187.251 236.012 186.129C236.012 185.919 235.665 185.923 235.684 186.129C235.758 187.002 235.844 187.918 235.508 188.748C235.118 189.676 234.094 190.408 233.094 189.945L233.087 189.957Z" fill="white"/>
<path d="M126.115 124.55C124.689 118.973 131.849 115.894 135.478 113.128C138.369 110.918 141.017 108.155 142.033 104.585C142.047 104.513 142.034 104.44 141.995 104.378C141.957 104.316 141.898 104.271 141.828 104.252C141.757 104.232 141.683 104.239 141.618 104.272C141.553 104.305 141.504 104.361 141.478 104.429C139.486 109.69 134.685 112.527 130.428 115.805C127.951 117.714 123.881 121.058 125.974 124.608C125.984 124.623 125.999 124.634 126.016 124.638C126.034 124.643 126.051 124.642 126.068 124.635C126.084 124.628 126.098 124.616 126.106 124.601C126.115 124.585 126.118 124.567 126.115 124.55Z" fill="white"/>
<path d="M144.549 101.046C145.268 98.509 146.178 95.8784 147.908 93.8321C149.838 91.5485 152.307 90.8941 155.221 91.0851C157.893 91.2605 160.131 91.3971 162.643 90.3053C165.287 89.1635 167.698 87.4179 170.096 85.8433C172.67 84.156 175.331 81.8679 178.584 81.9463C181.838 82.0239 184.663 83.7157 187.354 85.3172C189.667 86.6926 191.964 87.8851 194.581 88.5672C197.198 89.2493 200.011 89.5299 202.749 89.7911C202.897 89.7911 202.897 89.5732 202.749 89.5612C199.366 89.2299 195.908 88.9023 192.694 87.7254C189.479 86.5485 186.756 84.2918 183.639 82.8269C181.475 81.806 179.022 81.1202 176.608 81.5993C173.873 82.1411 171.409 84.1403 169.093 85.5702C166.358 87.2657 163.596 89.4679 160.417 90.247C157.428 90.9911 154.261 89.7873 151.334 90.8276C147.163 92.3127 145.448 97.1254 144.455 101.027C144.455 101.069 144.511 101.089 144.522 101.027L144.549 101.046Z" fill="white"/>
<path d="M216.154 89.7015L216.591 89.4829C216.778 89.3858 216.614 89.0933 216.423 89.1985L215.99 89.4172C215.798 89.5105 215.966 89.8067 216.154 89.7015Z" fill="white"/>
<path d="M158.998 97.1492L165.896 95.056C168.455 94.2769 170.838 93.4194 173.525 94.156C173.551 94.1634 173.58 94.1597 173.604 94.1463C173.628 94.1328 173.645 94.1104 173.652 94.0836C173.66 94.0575 173.656 94.0291 173.642 94.0052C173.629 93.9821 173.607 93.9642 173.58 93.9575C171.354 93.3649 169.475 93.7858 167.307 94.4597C164.525 95.3201 161.748 96.1851 158.975 97.0552C158.916 97.0552 158.939 97.1687 158.998 97.1492Z" fill="white"/>
<path d="M113.164 46.0023C118.176 53.2939 123.09 60.683 127.821 68.1616C132.552 75.6403 136.837 83.4657 141.637 90.9134C142.559 92.3395 144.68 91.0925 143.914 89.5843C139.875 81.6306 134.672 74.0347 129.622 66.6885C124.613 59.4124 119.348 52.3859 113.746 45.5502C113.481 45.2307 112.926 45.6554 113.164 46.0023Z" fill="#73BDE2"/>
<path d="M161.434 17.015C162.949 27.662 164.582 38.3326 166.672 48.8862C167.687 54.0304 168.738 59.1708 169.887 64.2917C170.475 66.9106 171.078 69.5269 171.696 72.1406C172.293 74.6932 172.684 77.4603 173.848 79.8223C174.375 80.8857 176.121 80.3715 176.075 79.2178C175.972 76.7081 175.059 74.2062 174.437 71.786C173.774 69.1879 173.122 66.5897 172.484 63.9916C171.207 58.7772 169.93 53.5667 168.722 48.3366C166.309 37.8883 163.863 27.4633 161.692 16.9565C161.656 16.7812 161.402 16.8591 161.426 17.0306L161.434 17.015Z" fill="#73BDE2"/>
<path d="M100.638 95.2314C104.407 98.2829 108.149 101.378 111.934 104.414C113.669 105.805 115.38 107.227 117.032 108.7C118.759 110.259 120.29 112.106 122.11 113.556C122.99 114.266 124.638 113.322 123.833 112.231C121.259 108.724 117.056 105.996 113.54 103.478C109.407 100.508 105.067 97.7956 100.825 94.9784C100.684 94.8844 100.509 95.1068 100.646 95.2158L100.638 95.2314Z" fill="#73BDE2"/>
<path d="M102.79 127.695C106.267 128.95 109.771 130.143 113.31 131.202C115.755 131.947 119.47 133.771 121.935 132.372C122.126 132.252 122.268 132.068 122.337 131.854C122.404 131.639 122.394 131.407 122.307 131.199C122.219 130.992 122.061 130.822 121.86 130.719C121.659 130.617 121.428 130.59 121.208 130.641C119.572 131.102 117.958 130.618 116.33 130.325C114.822 130.066 113.315 129.783 111.81 129.476C108.804 128.889 105.81 128.24 102.825 127.528C102.815 127.525 102.804 127.524 102.793 127.525C102.783 127.527 102.772 127.531 102.763 127.536C102.753 127.541 102.745 127.549 102.738 127.557C102.732 127.566 102.727 127.575 102.724 127.586C102.721 127.596 102.721 127.607 102.722 127.618C102.723 127.629 102.727 127.64 102.732 127.649C102.738 127.658 102.745 127.666 102.754 127.673C102.762 127.68 102.772 127.684 102.783 127.687L102.79 127.695Z" fill="#73BDE2"/>
<path d="M217.556 16.0525C216.748 26.2515 215.912 36.466 214.677 46.626C214.075 51.5831 213.468 56.5378 212.853 61.4898C212.537 64.0931 212.193 66.6925 211.849 69.2842C211.505 71.8758 210.927 74.4869 211.087 77.0784C211.093 77.3374 211.192 77.5852 211.365 77.7777C211.537 77.9702 211.774 78.0949 212.031 78.1299C212.287 78.165 212.549 78.1068 212.766 77.9672C212.984 77.8269 213.146 77.6143 213.22 77.3672C214.002 75.1143 214.146 72.6007 214.443 70.2428C214.763 67.7136 215.033 65.1765 215.302 62.6395C215.857 57.4432 216.288 52.2353 216.596 47.0157C217.197 36.6999 217.685 26.3957 217.72 16.0604C217.72 16.0387 217.711 16.0178 217.696 16.0025C217.681 15.9872 217.66 15.9785 217.638 15.9785C217.616 15.9785 217.596 15.9872 217.58 16.0025C217.565 16.0178 217.556 16.0387 217.556 16.0604V16.0525Z" fill="#73BDE2"/>
<path d="M267.931 24.5094C265.848 28.7729 264.177 33.2586 262.305 37.6196C260.434 41.9805 258.473 46.3414 256.539 50.6946C254.657 54.9386 252.754 59.1787 250.872 63.4266C249.903 65.6117 248.942 67.8006 247.989 69.9934C247.153 71.8952 245.626 74.1712 245.684 76.2837C245.686 76.5128 245.757 76.7359 245.885 76.9262C246.014 77.1158 246.196 77.2635 246.408 77.3516C246.62 77.4389 246.854 77.462 247.079 77.4187C247.304 77.3747 247.513 77.2665 247.677 77.106C249.266 75.7381 249.915 73.0527 250.735 71.1587C251.636 69.0802 252.519 66.9913 253.383 64.892C255.2 60.4765 256.927 56.0299 258.595 51.5598C260.219 47.2066 261.751 42.8262 263.282 38.4458C264.907 33.8471 266.696 29.2367 267.942 24.5173C267.942 24.5173 267.922 24.4938 267.915 24.5173L267.931 24.5094Z" fill="#73BDE2"/>
<path d="M291.639 66.0183C288.643 70.5079 286.17 75.3717 283.245 79.9314C280.319 84.4911 277.163 88.93 274.131 93.4195C273.249 94.7247 275.303 95.871 276.217 94.6389C279.45 90.1344 282.36 85.4091 284.928 80.4964C287.393 75.8859 290.061 71.0145 291.663 66.03C291.663 66.03 291.663 66.0067 291.639 66.03V66.0183Z" fill="#73BDE2"/>
<path d="M308.971 100.061C301.549 105.255 294.228 111.031 288.31 117.909C287.662 118.665 288.701 119.741 289.416 119.016C295.803 112.523 301.99 105.945 308.99 100.08C308.99 100.08 308.99 100.049 308.971 100.08V100.061Z" fill="#73BDE2"/>
<path d="M291.833 121.366H290.852C290.748 121.366 290.649 121.407 290.576 121.48C290.503 121.553 290.462 121.652 290.462 121.756C290.462 121.859 290.503 121.958 290.576 122.031C290.649 122.105 290.748 122.146 290.852 122.146H291.833C291.937 122.146 292.036 122.105 292.109 122.031C292.182 121.958 292.223 121.859 292.223 121.756C292.223 121.652 292.182 121.553 292.109 121.48C292.036 121.407 291.937 121.366 291.833 121.366Z" fill="#73BDE2"/>
<path d="M114.27 152.929C118.403 152.769 122.59 153.264 126.696 153.023C126.819 153.012 126.934 152.955 127.018 152.864C127.101 152.772 127.148 152.654 127.148 152.53C127.148 152.406 127.101 152.287 127.018 152.196C126.934 152.105 126.819 152.048 126.696 152.037C122.68 151.565 118.262 152.278 114.27 152.766C114.169 152.766 114.16 152.933 114.27 152.929Z" fill="#73BDE2"/>
<path d="M124.427 174.773C129.837 173.993 135.2 172.972 140.56 171.901C141.184 171.776 140.919 170.821 140.298 170.95C134.962 172.048 129.649 173.21 124.376 174.586C124.254 174.617 124.31 174.789 124.427 174.773Z" fill="#73BDE2"/>
<path d="M145.325 189.001C148.723 188.109 152.118 186.48 155.329 185.054C155.719 184.878 155.434 184.189 155.032 184.352C151.778 185.678 148.251 186.995 145.266 188.826C145.248 188.839 145.235 188.857 145.229 188.879C145.222 188.901 145.224 188.923 145.233 188.944C145.241 188.964 145.257 188.981 145.276 188.992C145.296 189.002 145.319 189.006 145.34 189.001H145.325Z" fill="#73BDE2"/>
<path d="M169.013 198.569L171.661 196.316C171.899 196.11 171.548 195.755 171.31 195.966L168.724 198.281C168.525 198.456 168.813 198.74 169.013 198.569Z" fill="#73BDE2"/>
<path d="M252.734 192.298C251.617 191.589 250.547 190.786 249.418 190.104C248.902 189.792 248.418 190.623 248.945 190.907C250.117 191.535 251.348 192.049 252.528 192.653C252.574 192.674 252.626 192.676 252.675 192.66C252.723 192.645 252.763 192.612 252.789 192.568C252.815 192.524 252.823 192.472 252.813 192.423C252.803 192.373 252.775 192.329 252.734 192.298Z" fill="#73BDE2"/>
<path d="M268.336 177.466C265.629 175.775 263.019 173.958 260.414 172.127C259.734 171.652 259.075 172.774 259.762 173.237C262.423 175.018 265.256 176.527 268.219 177.743C268.379 177.813 268.473 177.555 268.336 177.466Z" fill="#73BDE2"/>
<path d="M290.552 158.522C285.931 156.678 281.236 155.014 276.557 153.346C275.798 153.073 275.435 154.328 276.221 154.562C280.971 155.981 285.705 157.446 290.501 158.705C290.526 158.712 290.552 158.708 290.574 158.696C290.596 158.684 290.612 158.663 290.619 158.639C290.625 158.614 290.622 158.588 290.61 158.566C290.598 158.545 290.577 158.528 290.552 158.522Z" fill="#73BDE2"/>
<path d="M308.527 136.156C301.558 136.842 294.578 137.243 287.581 137.454C286.82 137.473 286.82 138.666 287.581 138.622C294.612 138.284 301.614 137.504 308.546 136.284C308.621 136.284 308.605 136.14 308.527 136.148V136.156Z" fill="#73BDE2"/>
<path d="M109.325 218.157C111.349 217.502 113.349 216.754 115.337 215.974C115.205 215.568 114.975 215.201 114.666 214.906C114.357 214.611 113.98 214.396 113.568 214.283C113.016 214.111 112.431 214.073 111.86 214.173C110.435 214.427 109.271 215.316 108.146 216.184C108.009 215.113 107.81 213.955 107.017 213.226C106.369 212.634 105.196 212.599 104.626 213.168C106.502 209.891 107.466 206.173 107.416 202.4C107.392 201.017 107.22 199.59 106.525 198.39C105.216 196.125 102.228 195.19 99.6731 195.705C97.1187 196.22 94.9194 197.93 93.1963 199.906C91.9224 201.455 90.7291 203.07 89.6224 204.743C89.756 204.293 89.7642 203.817 89.6448 203.364C89.5261 202.911 89.2843 202.499 88.947 202.174C87.7552 201.13 85.5836 201.628 84.9739 203.09C85.6694 201.375 86.9664 199.972 87.9545 198.414C89.2239 196.399 90.0015 193.737 87.9978 191.761C87.4694 191.268 86.8343 190.902 86.1425 190.691C85.4508 190.481 84.7194 190.431 84.0052 190.545C80.6731 191.009 78.5366 193.596 76.5836 196.06C78.9336 192.402 80.0299 188.081 79.7082 183.749C79.5911 182.267 79.2321 180.662 78.0522 179.754C77.6239 179.428 77.1224 179.211 76.5911 179.122C75.75 178.99 74.8888 179.127 74.1303 179.512C73.3715 179.896 72.7537 180.511 72.3646 181.266C69.2748 187.081 68.2475 193.826 70.7279 201.757C76.2119 219.299 93.2828 223.34 109.325 218.157Z" fill="#303757"/>
<path d="M109.794 219.848C111.822 219.181 113.817 218.441 115.801 217.666C116.95 217.217 117.337 216.204 116.852 215.09C115.001 210.802 110.04 212.537 107.259 214.669L109.841 215.716C109.45 212.875 106.892 209.411 103.74 211.656L106.146 214.064C109.056 208.799 111.962 198.129 104.939 194.707C97.5164 191.083 91.794 198.605 88.1067 203.866L91.3171 205.218C91.6806 202.969 90.8992 200.658 88.4776 200.023C87.5149 199.78 86.4985 199.863 85.5888 200.26C84.6791 200.658 83.9283 201.346 83.4545 202.217L86.4895 203.987C87.6261 201.472 89.7746 199.547 90.6142 196.881C91.4186 194.341 90.794 191.625 88.5873 189.996C83.6261 186.336 78.3328 191.083 75.3373 194.832L78.0985 196.956C80.1709 193.663 81.3433 189.889 81.5007 186.005C81.6261 182.852 81.1298 178.658 77.5716 177.563C69.8486 175.19 67.6222 187.802 67.5792 192.918C67.4698 206.052 75.997 218.207 88.9895 221.169C95.8798 222.728 103.11 221.949 109.794 219.848C111.943 219.166 111.025 215.779 108.86 216.465C100.021 219.267 89.7709 219.665 81.7627 214.345C72.5166 208.207 68.7198 194.922 72.6924 184.726C73.2354 183.331 73.9503 181.048 75.7 180.864C77.794 180.646 77.9545 183.234 77.9933 184.722C78.0746 188.422 77.0552 192.062 75.0634 195.183C74.0323 196.831 76.5597 198.889 77.8254 197.307C79.556 195.14 83.1925 190.49 86.4186 192.786C89.6455 195.081 84.4657 199.964 83.4388 202.213C82.5283 204.228 85.3918 206.009 86.4739 203.982C86.8291 203.331 88.1298 202.949 87.9112 204.282C87.5985 206.231 89.9463 207.322 91.1261 205.635C93.6418 202.034 97.747 195.502 103.114 197.728C105.704 198.803 105.755 201.644 105.595 204.064C105.379 206.957 104.525 209.766 103.095 212.291C102.313 213.722 103.99 215.763 105.497 214.692C106.196 214.193 106.372 216.216 106.434 216.64C106.583 217.685 108.184 218.328 109.016 217.689C110.212 216.773 112.841 214.634 113.801 216.851L114.852 214.275C112.868 215.055 110.868 215.791 108.845 216.458C106.72 217.182 107.63 220.557 109.794 219.848Z" fill="#303757"/>
<path d="M330.287 162.278C329.505 160.719 328.56 159.243 327.189 158.19C326.758 157.804 326.206 157.578 325.627 157.552C324.49 157.59 323.802 158.802 323.447 159.89C322.504 162.784 322.33 165.872 322.939 168.853C322.471 167.654 321.619 166.644 320.517 165.977C320.263 165.792 319.948 165.707 319.634 165.74C319.3 165.85 319.02 166.084 318.853 166.394C317.531 168.335 316.854 170.642 316.919 172.988C316.401 172.181 315.59 171.605 314.656 171.378C313.722 171.152 312.737 171.294 311.904 171.775C311.073 172.255 310.459 173.037 310.19 173.957C309.922 174.878 310.019 175.867 310.463 176.718C308.596 174.956 305.049 175.657 303.994 177.992C302.517 173.534 299.306 169.566 295.01 167.637C290.713 165.708 285.369 166.024 281.607 168.849C277.846 171.675 276.064 177.034 277.826 181.399C276.517 179.793 273.919 179.605 272.193 180.752C270.466 181.897 269.627 184.095 269.787 186.157C269.834 186.776 269.935 187.481 269.521 187.942C269.224 188.201 268.871 188.389 268.49 188.491C265.643 189.633 264.787 193.261 264.943 196.316C265.334 203.538 269.127 210.276 274.291 215.355C276.028 217.051 277.9 218.604 279.888 220C279.32 218.393 278.616 216.838 277.783 215.351C273.564 207.724 264.111 196.956 271.346 188.222C277.255 181.071 289.084 183.351 297.169 183.319C307.475 183.281 318.853 180.354 325.65 172.107C327.97 169.254 329.561 165.881 330.287 162.278Z" fill="#0088CC"/>
<path d="M331.793 161.394C330.34 158.631 326.539 153.471 323.134 156.904C320.251 159.816 320.548 165.638 321.219 169.305L324.431 167.953C323.52 165.926 320.751 162.707 318.278 164.446C315.872 166.145 315.153 170.252 315.153 172.965L318.426 172.08C316.719 169.804 313.622 168.693 311.004 170.217C308.387 171.741 307.813 174.964 308.942 177.579L311.704 175.455C308.813 173.07 304.305 173.662 302.473 177.084L305.688 177.505C302.954 169.675 295.723 163.584 287.067 164.804C279.141 165.922 273.242 174.009 276.129 181.839L279.067 180.131C275.469 176.34 269.583 178.763 268.309 183.421C268.171 183.939 268.081 184.469 268.04 185.003C268.012 185.366 268.219 186.402 268.04 186.695C267.86 186.987 267.043 187.213 266.719 187.423C266.325 187.685 265.958 187.987 265.625 188.323C264.032 189.949 263.407 192.263 263.211 194.469C262.247 205.525 270.634 215.463 278.997 221.493C280.216 222.369 282.083 220.904 281.578 219.513C279.169 212.845 274.2 207.54 271.66 200.95C270.489 197.919 269.872 194.524 271.305 191.469C272.672 188.561 275.348 186.628 278.368 185.713C284.36 183.893 290.798 185.042 296.938 185.05C303.821 185.05 310.825 183.842 317.059 180.852C324.512 177.279 330.2 170.891 331.985 162.739C332.466 160.54 329.075 159.597 328.594 161.807C325.125 177.66 307.754 182.045 293.602 181.453C287.328 181.188 280.559 180.584 274.719 183.402C268.707 186.289 265.942 192.712 267.395 199.087C269.207 207.03 275.461 212.919 278.188 220.456L280.77 218.476C273.852 213.499 267.766 206.29 266.793 197.537C266.594 195.767 266.559 193.81 267.278 192.139C267.592 191.326 268.168 190.641 268.915 190.19C269.61 189.801 270.368 189.633 270.899 188.978C272.071 187.528 271.207 185.662 271.801 184.033C272.536 182.025 274.926 180.868 276.578 182.61C277.751 183.83 280.134 182.575 279.516 180.903C277.258 174.8 281.86 168.763 288.11 168.187C294.751 167.571 300.219 172.446 302.289 178.432C302.758 179.777 304.747 180.264 305.504 178.849C306.184 177.579 307.989 176.924 309.211 177.93C310.798 179.239 312.766 177.646 311.973 175.806C311.043 173.658 313.989 171.975 315.391 173.857C316.375 175.166 318.669 174.854 318.669 172.969C318.669 171.207 319.16 169.956 319.707 168.346C320.122 168.035 320.16 167.797 319.821 167.634C319.451 167.343 319.559 167.413 320.145 167.844C320.689 168.378 321.119 169.015 321.41 169.719C322.278 171.667 324.957 170.186 324.625 168.37C324.113 165.813 324.247 163.169 325.016 160.677C325.407 159.465 325.563 159.021 326.66 160.069C327.524 160.98 328.232 162.025 328.758 163.163C329.809 165.166 332.844 163.401 331.793 161.394Z" fill="#0088CC"/>
<path d="M75.9656 207.482C75.638 205.474 76.9947 205.32 80.0358 207.022C80.1917 207.556 80.2238 208.119 80.1298 208.666C80.0985 208.998 80.5201 209.057 80.6999 208.822L83.9074 209.166C83.9358 209.255 83.9925 209.333 84.0686 209.388C84.1447 209.444 84.2365 209.474 84.3313 209.474C84.4253 209.474 84.5171 209.444 84.5932 209.388C84.6694 209.333 84.7261 209.255 84.7552 209.166C85.5753 206.675 88.0283 203.955 90.9149 205.42C94.0089 206.979 91.7701 210.623 90.3679 212.517C90.0126 212.996 90.7395 213.417 91.1492 213.106C93.8604 213.191 94.588 214.088 93.3328 215.795C93.2544 215.878 93.2089 215.987 93.2037 216.101C93.1977 216.216 93.2335 216.328 93.3029 216.419C93.3731 216.51 93.4731 216.572 93.585 216.596C93.697 216.621 93.8141 216.604 93.9149 216.551L95.7589 217.775C95.7589 217.887 95.8037 217.995 95.8835 218.075C95.9634 218.154 96.0716 218.199 96.1843 218.199C96.2977 218.199 96.4059 218.154 96.4858 218.075C96.5656 217.995 96.6104 217.887 96.6104 217.775C96.6925 215.912 95.0716 214.957 93.4305 215.721L94.0126 216.473C96.1843 213.854 93.3253 210.144 90.4619 212.416L91.2432 213.004C93.0985 210.506 95.1104 205.931 90.985 204.372C87.5985 203.089 84.8761 205.958 83.9544 208.932H84.8014C83.9149 206.828 81.4462 206.496 80.2156 208.515L80.7858 208.666C80.841 206.937 80.0358 204.969 78.0164 204.929C77.6962 204.911 77.3768 204.97 77.0843 205.101C76.7917 205.232 76.5358 205.431 76.3365 205.682C76.1373 205.933 76.0014 206.228 75.9402 206.541C75.8791 206.855 75.8947 207.179 75.985 207.486C75.985 207.486 76.0164 207.486 76.0126 207.486L75.9656 207.482Z" fill="#0088CC"/>
<path d="M98.9694 218.897C99.0746 218.822 99.1641 218.726 99.2313 218.616C99.2985 218.505 99.3425 218.382 99.3597 218.254C99.3671 218.229 99.3694 218.203 99.3656 218.177C99.3626 218.152 99.3529 218.127 99.3388 218.105C99.3253 218.083 99.3059 218.064 99.2843 218.051C99.2626 218.037 99.2373 218.028 99.2119 218.024C99.1858 218.021 99.1597 218.023 99.135 218.031C99.1097 218.038 99.0873 218.052 99.0679 218.069C99.0485 218.086 99.0328 218.108 99.0231 218.131C99.0126 218.155 99.0074 218.181 99.0082 218.207C99.0037 218.295 98.9798 218.381 98.9388 218.459C98.897 218.537 98.8403 218.605 98.7701 218.659C98.641 218.768 98.8134 218.994 98.9537 218.897H98.9694Z" fill="#0088CC"/>
<path d="M103.879 217.529C103.598 216.488 104.985 215.849 105.442 216.898C105.54 217.119 105.833 217.057 105.954 216.898C106.446 216.216 106.891 215.498 107.356 214.793C107.61 214.404 106.966 214.041 106.739 214.434C106.305 215.151 105.848 215.865 105.442 216.598H105.954C105.172 215.284 103.078 216.079 103.688 217.583C103.696 217.608 103.712 217.629 103.735 217.642C103.758 217.654 103.784 217.657 103.809 217.65C103.834 217.642 103.855 217.625 103.867 217.603C103.88 217.58 103.883 217.554 103.875 217.529H103.879Z" fill="#0088CC"/>
<path d="M71.9312 189.512C74.3726 188.343 73.9664 191.418 73.5836 192.154C73.5462 192.219 73.5359 192.297 73.5549 192.37C73.5739 192.442 73.6206 192.505 73.6852 192.544C74.607 193.21 76.4544 194.824 74.7477 195.907C74.2047 196.254 74.7477 197.131 75.2477 196.761C77.2791 195.264 75.8373 192.763 73.9 192.034L74.0953 192.381C74.3531 191.48 74.5328 190.404 73.8023 189.652C73.5559 189.392 73.2272 189.225 72.8715 189.178C72.5159 189.131 72.1549 189.208 71.8492 189.395C71.7711 189.442 71.8492 189.551 71.9195 189.512H71.9312Z" fill="#0088CC"/>
<path d="M282.524 178.721C283.048 176.967 284.653 174.302 286.931 175.712C287.946 176.336 288.419 177.435 288.728 178.553C288.754 178.64 288.806 178.717 288.876 178.775C288.946 178.834 289.031 178.871 289.122 178.883C289.213 178.894 289.304 178.88 289.386 178.84C289.469 178.802 289.539 178.74 289.586 178.663C289.798 177.961 290.321 177.692 291.149 177.86C292.086 177.244 292.607 177.404 292.712 178.339C292.748 178.452 292.816 178.553 292.907 178.63C292.999 178.706 293.11 178.755 293.229 178.771C293.348 178.787 293.468 178.768 293.576 178.717C293.684 178.667 293.776 178.587 293.84 178.487C294.622 177.232 296.055 177.049 297.254 177.751C297.868 178.109 298.321 177.232 297.794 176.827C296.137 175.552 293.86 176.18 292.774 177.864L293.903 178.011C292.622 174.972 290.126 175.428 288.754 178.191H289.567C288.786 176.659 287.922 174.684 285.868 174.796C283.813 174.91 282.927 176.994 282.466 178.693C282.466 178.699 282.468 178.704 282.472 178.708C282.475 178.711 282.48 178.713 282.485 178.713C282.49 178.713 282.495 178.711 282.499 178.708C282.502 178.704 282.504 178.699 282.504 178.693L282.524 178.721Z" fill="#73BDE2"/>
<path d="M301.213 179.352L301.654 179.145C301.681 179.131 301.704 179.11 301.722 179.086C301.74 179.062 301.754 179.034 301.761 179.004C301.769 178.975 301.771 178.945 301.766 178.915C301.763 178.885 301.752 178.856 301.737 178.83C301.706 178.777 301.655 178.739 301.596 178.722C301.537 178.707 301.474 178.714 301.42 178.744L300.99 178.99C300.941 179.019 300.905 179.068 300.89 179.124C300.876 179.18 300.884 179.24 300.913 179.29C300.943 179.34 300.991 179.375 301.047 179.39C301.103 179.404 301.163 179.396 301.213 179.368V179.352Z" fill="#73BDE2"/>
<path d="M312.528 177.325L314.63 175.728C314.687 175.756 314.75 175.77 314.814 175.768C314.878 175.766 314.94 175.748 314.996 175.717C315.052 175.686 315.099 175.641 315.133 175.587C315.167 175.533 315.187 175.472 315.192 175.408C315.29 174.239 315.466 172.914 316.387 172.064C318.048 170.505 319.512 171.803 320.645 173.062C320.734 173.145 320.846 173.198 320.967 173.213C321.088 173.227 321.211 173.201 321.316 173.14C321.421 173.079 321.503 172.986 321.551 172.874C321.599 172.763 321.608 172.638 321.578 172.52C322.012 171.433 322.661 171.001 323.532 171.219C324.219 171.293 324.204 170.233 323.532 170.151C321.809 169.948 319.934 170.805 320.501 172.816L321.438 172.275C320.196 170.86 318.641 169.734 316.751 170.638C314.934 171.495 314.375 173.565 314.466 175.408L314.938 175.05C313.286 174.493 311.926 175.65 312.36 177.353C312.384 177.454 312.559 177.435 312.548 177.325H312.528Z" fill="#73BDE2"/>
<path d="M325.879 166.472C325.95 166.463 326.015 166.43 326.062 166.377C326.109 166.325 326.135 166.256 326.135 166.186C326.135 166.115 326.109 166.046 326.062 165.994C326.015 165.941 325.95 165.907 325.879 165.899C325.809 165.907 325.744 165.941 325.697 165.994C325.65 166.046 325.624 166.115 325.624 166.186C325.624 166.256 325.65 166.325 325.697 166.377C325.744 166.43 325.809 166.463 325.879 166.472Z" fill="#73BDE2"/>
<path d="M268.852 186.807C269.661 186.839 270.587 186.92 271.231 187.478C271.272 187.518 271.324 187.546 271.379 187.56C271.435 187.575 271.493 187.575 271.549 187.56C271.604 187.546 271.656 187.518 271.697 187.478C271.739 187.438 271.769 187.389 271.786 187.334C272.278 185.775 273.891 185.319 275.34 185.069C276.044 184.952 275.754 183.814 275.044 183.99C273.84 184.278 272.551 184.684 271.763 185.701C271.634 185.864 271.372 186.722 271.204 186.811C270.934 186.975 269.184 186.671 268.86 186.698C268.845 186.698 268.831 186.704 268.822 186.714C268.811 186.725 268.805 186.738 268.805 186.753C268.805 186.767 268.811 186.781 268.822 186.792C268.831 186.801 268.845 186.807 268.86 186.807H268.852Z" fill="#73BDE2"/>
<path d="M271.787 212.724C271.736 211.944 272.275 211.048 273.15 211.122C273.239 211.125 273.325 211.097 273.396 211.044C273.468 210.991 273.519 210.916 273.54 210.83C273.728 210.265 273.955 209.883 274.572 209.734C275.283 209.567 274.962 208.401 274.271 208.651C273.427 208.967 272.646 209.754 272.752 210.725L273.044 210.335C271.951 210.572 271.091 211.675 271.611 212.775C271.622 212.792 271.639 212.805 271.658 212.813C271.678 212.82 271.699 212.821 271.719 212.815C271.74 212.81 271.758 212.798 271.77 212.781C271.783 212.765 271.79 212.745 271.79 212.724H271.787Z" fill="#73BDE2"/>
</svg>