<svg width="12" height="12" viewBox="0 0 12 12" fill="none" xmlns="http://www.w3.org/2000/svg">
<path fill-rule="evenodd" clip-rule="evenodd" d="M10.8985 7.10337C11.5068 7.10337 12 6.6102 12 6.00185C12 5.3935 11.5068 4.90033 10.8985 4.90033L3.75789 4.90033L6.16979 2.48844C6.59996 2.05827 6.59996 1.36083 6.16979 0.930659C5.73962 0.50049 5.04217 0.50049 4.612 0.93066L0.3281 5.21456C0.221408 5.32125 0.141178 5.44439 0.08741 5.57581C-0.0828084 5.97691 -0.00440114 6.45843 0.322633 6.78546L4.60654 11.0694C5.03671 11.4995 5.73415 11.4995 6.16432 11.0694C6.59449 10.6392 6.59449 9.94175 6.16432 9.51158L3.7561 7.10337L10.8985 7.10337Z" fill="black"/>
</svg>