<svg width="12" height="12" viewBox="0 0 12 12" fill="none" xmlns="http://www.w3.org/2000/svg">
<path opacity="0.75" fill-rule="evenodd" clip-rule="evenodd" d="M10.0339 11.2046C10.4836 11.6544 11.2129 11.6544 11.6627 11.2046C12.1124 10.7549 12.1124 10.0256 11.6627 9.57585L8.08679 5.99998L11.6626 2.42413C12.1124 1.97435 12.1124 1.24511 11.6626 0.79533C11.2129 0.345548 10.4836 0.345547 10.0338 0.795328L6.45799 4.37117L2.88204 0.795222C2.43226 0.34544 1.70302 0.345441 1.25324 0.795222C0.803455 1.245 0.803454 1.97424 1.25324 2.42402L4.82919 5.99998L1.25321 9.57595C0.80343 10.0257 0.80343 10.755 1.25321 11.2048C1.70299 11.6545 2.43223 11.6545 2.88201 11.2048L6.45799 7.62878L10.0339 11.2046Z" fill="black"/>
</svg>