<svg width="24" height="25" viewBox="0 0 24 25" fill="none" class="cog" xmlns="http://www.w3.org/2000/svg">
<g>
<path d="M10.321 22.2716L10.3212 22.2723C10.4142 22.6482 10.868 23 11.2401 23H12.7616C13.1338 23 13.5876 22.6482 13.6806 22.2723L13.6808 22.2716L14.244 20.0043C14.2442 20.0034 14.2445 20.0025 14.2447 20.0015C14.3234 19.679 14.466 19.3753 14.6645 19.1089C14.8634 18.8416 15.1145 18.6172 15.4028 18.4496C15.691 18.282 16.0104 18.1748 16.3416 18.1347C16.6717 18.0948 17.0064 18.1224 17.3255 18.216C17.3265 18.2163 17.3276 18.2166 17.3286 18.2169L19.5546 18.8591C19.916 18.9631 20.4454 18.7492 20.6337 18.4187L20.6346 18.4173L21.3945 17.0893C21.3946 17.0891 21.3947 17.0889 21.3948 17.0887C21.5878 16.7493 21.5054 16.1724 21.2324 15.9059L10.321 22.2716ZM10.321 22.2716L9.75779 20.0044C9.75755 20.0034 9.7573 20.0024 9.75706 20.0014C9.67834 19.6788 9.53564 19.3752 9.33715 19.1088C9.13804 18.8415 8.88682 18.6172 8.59838 18.4497C8.30991 18.2822 7.99036 18.1752 7.65903 18.1355C7.32891 18.0959 6.99431 18.1239 6.67542 18.2177C6.67424 18.2181 6.67306 18.2184 6.67189 18.2188L4.44721 18.8606C4.44697 18.8607 4.44674 18.8608 4.44651 18.8608C4.44648 18.8608 4.44646 18.8609 4.44644 18.8609C4.08506 18.9643 3.55625 18.7505 3.36805 18.4203L3.36677 18.418L2.60501 17.0895C2.60492 17.0894 2.60484 17.0892 2.60475 17.0891C2.4128 16.7529 2.49408 16.1756 2.76855 15.9068C2.76873 15.9066 2.76892 15.9064 2.7691 15.9062L4.4368 14.2822C4.43714 14.2818 4.43748 14.2815 4.43781 14.2812C4.67643 14.0496 4.86584 13.7724 4.99512 13.4663C5.12459 13.1598 5.19121 12.8304 5.19121 12.4977C5.19121 12.165 5.12459 11.8356 4.99512 11.5291C4.86581 11.223 4.67636 10.9457 4.4377 10.7141C4.4374 10.7138 4.4371 10.7135 4.4368 10.7132L2.7709 9.09103L2.77034 9.09048C2.49645 8.82419 2.41399 8.24755 2.60699 7.90815C2.6071 7.90796 2.6072 7.90778 2.60731 7.90759L3.3672 6.57967L3.3676 6.57897C3.55654 6.24819 4.08637 6.03487 4.44552 6.13887L4.44644 6.13914L6.67558 6.78231C6.67614 6.78247 6.6767 6.78264 6.67727 6.7828C6.99669 6.87575 7.3316 6.90287 7.66186 6.86245C7.9927 6.82196 8.31167 6.71457 8.59964 6.54704C8.88759 6.37953 9.13845 6.15545 9.33749 5.88861C9.53619 5.62223 9.67923 5.31865 9.75844 4.9961C9.75857 4.99557 9.7587 4.99505 9.75883 4.99452L10.3211 2.7281L10.3212 2.72768C10.4142 2.35183 10.868 2 11.2401 2H12.7616C13.1342 2 13.5879 2.35226 13.6807 2.72657L14.2429 4.99291C14.243 4.99341 14.2432 4.99392 14.2433 4.99442C14.3225 5.31708 14.4656 5.62077 14.6644 5.88718C14.8636 6.15403 15.1146 6.37807 15.4028 6.54544C15.6909 6.71283 16.0101 6.82 16.341 6.86017C16.6712 6.90026 17.006 6.87279 17.3252 6.77953C17.326 6.77931 17.3267 6.77909 17.3275 6.77886L19.5551 6.13615C19.5551 6.13613 19.5552 6.1361 19.5553 6.13607C19.9134 6.03306 20.4425 6.24496 20.633 6.57802L20.6335 6.57889L21.3945 7.90606C21.3946 7.90634 21.3948 7.90663 21.395 7.90692C21.5873 8.24566 21.5043 8.82215 21.2315 9.08738L21.2302 9.08862L19.5653 10.7129C19.326 10.9433 19.1357 11.2197 19.0056 11.5251C18.8749 11.8321 18.8074 12.1623 18.8072 12.4959C18.807 12.8294 18.8739 13.1598 19.0042 13.4669C19.1341 13.773 19.3243 14.05 19.5638 14.281C19.5646 14.2818 19.5655 14.2826 19.5663 14.2834L21.232 15.9056L10.321 22.2716ZM12.0009 8.43333C10.9261 8.43333 9.89694 8.86369 9.13935 9.62718C8.38202 10.3904 7.95793 11.4239 7.95793 12.5C7.95793 13.5761 8.38202 14.6096 9.13935 15.3728C9.89694 16.1363 10.9261 16.5667 12.0009 16.5667C13.0757 16.5667 14.1048 16.1363 14.8624 15.3728C15.6198 14.6096 16.0438 13.5761 16.0438 12.5C16.0438 11.4239 15.6198 10.3904 14.8624 9.62718C14.1048 8.86369 13.0757 8.43333 12.0009 8.43333Z" stroke="black" stroke-width="2" stroke-linejoin="round"/>
</g>
</svg>