<svg width="32" height="32" viewBox="0 0 32 32" fill="none" xmlns="http://www.w3.org/2000/svg">
<path d="M16 32C7.17797 32 0 24.822 0 16C0 7.17797 7.17797 0 16 0C24.822 0 32 7.17797 32 16C32 24.822 24.822 32 16 32ZM16 1.3913C13.1107 1.3913 10.2862 2.24809 7.88384 3.85331C5.48146 5.45854 3.60902 7.7401 2.50333 10.4095C1.39763 13.0789 1.10833 16.0162 1.67201 18.85C2.23569 21.6838 3.62703 24.2868 5.67009 26.3299C7.71315 28.373 10.3162 29.7643 13.15 30.328C15.9838 30.8917 18.9211 30.6024 21.5905 29.4967C24.2599 28.391 26.5415 26.5185 28.1467 24.1162C29.7519 21.7138 30.6087 18.8893 30.6087 16C30.6044 12.1269 29.0639 8.41357 26.3252 5.67484C23.5864 2.93611 19.8731 1.3956 16 1.3913Z" fill="#0088CC"/>
<path d="M15.717 24.2024C15.717 24.2024 11.7572 20.2426 10.6258 19.1113C9.49442 17.9799 8.92873 15.1515 10.6258 13.4544C12.6088 11.4714 15.3398 12.5116 16.2826 13.4544L19.1111 16.2828" class="logo_stroke" stroke="#303757" stroke-width="1.325"/>
<path d="M16.2826 7.79756C16.2826 7.79756 20.2424 11.7574 21.3737 12.8887C22.5051 14.0201 23.0708 16.8485 21.3737 18.5456C19.3908 20.5285 16.6597 19.4884 15.7169 18.5456L12.8884 15.7172" class="logo_stroke" stroke="#303757" stroke-width="1.325"/>
</svg>
