<svg width="14" height="16" viewBox="0 0 14 16" fill="none" xmlns="http://www.w3.org/2000/svg">
<path d="M4.83327 0.800472C4.8583 0.789162 4.8855 0.783449 4.91298 0.783732H9.21732C9.24479 0.783525 9.27197 0.789235 9.29703 0.800472L12.1937 2.09975C12.2265 2.11536 12.2541 2.13996 12.2734 2.17069L13.925 4.73098C13.947 4.76515 13.9575 4.80543 13.9551 4.84598C13.9527 4.88654 13.9374 4.92527 13.9115 4.95656L7.21261 15.1468C7.19466 15.1686 7.17214 15.186 7.14665 15.1981C7.12116 15.2101 7.09333 15.2163 7.06515 15.2163C7.03697 15.2163 7.00914 15.2101 6.98365 15.1981C6.95816 15.186 6.93563 15.1686 6.91769 15.1468L0.222034 4.95895C0.195998 4.92772 0.180638 4.88897 0.178199 4.84839C0.175761 4.8078 0.186373 4.76749 0.208484 4.73337L1.86008 2.17308C1.87938 2.14235 1.90703 2.11775 1.93979 2.10214L4.83327 0.800472Z" fill="#47A9F1"/>
<path d="M4.83327 0.800472C4.8583 0.789162 4.8855 0.783449 4.91298 0.783732H9.21732C9.24479 0.783525 9.27197 0.789235 9.29703 0.800472L12.1937 2.09975C12.2265 2.11536 12.2541 2.13996 12.2734 2.17069L13.925 4.73098C13.947 4.76515 13.9575 4.80543 13.9551 4.84598C13.9527 4.88654 13.7363 4.8147 13.7104 4.84598L7.21261 5.04913C7.19466 5.07085 7.17214 5.08834 7.14665 5.10034C7.12116 5.11234 7.09333 5.11857 7.06515 5.11857C7.03697 5.11857 7.00914 5.11234 6.98365 5.10034C6.95816 5.08834 6.93563 5.07085 6.91769 5.04913L0.374361 4.84839C0.348325 4.81716 0.180638 4.88898 0.178199 4.84839C0.175761 4.8078 0.186373 4.7675 0.208484 4.73337L1.86008 2.17308C1.87938 2.14235 1.90703 2.11775 1.93979 2.10214L4.83327 0.800472Z" fill="#7EC7FF"/>
<path d="M7.06525 3.36633L9.69568 6.85764H4.43481L7.06525 3.36633Z" fill="#75C1FF"/>
<path d="M7.06525 15.0837L9.69568 6.85767H4.43481L7.06525 15.0837Z" fill="#8DCCFC"/>
<path d="M7.06527 3.36636L2.40222 2.67288L4.43483 6.85766L7.06527 3.36636Z" fill="#BFE2F7"/>
<path d="M0.130432 4.84897L2.40217 2.67288L4.43478 6.85766L0.130432 4.84897Z" fill="#87CBFF"/>
<path d="M0.130432 4.84895L2.40217 2.67286L1.9 2.12286L0.130432 4.84895Z" fill="#47A9F1"/>
<path d="M7.06525 3.36636L11.7283 2.67288L9.69568 6.85766L7.06525 3.36636Z" fill="#4BAEF7"/>
<path d="M14 4.84897L11.7282 2.67288L9.69562 6.85766L14 4.84897Z" fill="#6EBEFF"/>
<path d="M14 4.84895L11.7283 2.67286L12.2304 2.12286L14 4.84895Z" fill="#389BE3"/>
</svg>