<svg width="32" height="32" viewBox="0 0 32 32" fill="none" xmlns="http://www.w3.org/2000/svg">
<path d="M12.8302 20.9623L8.42438 15.6429L11.6047 17.1281L12.8302 20.9623Z" fill="#DDDDDD"/>
<path d="M16 24.7884L15.2093 23.833L13.1223 17.3217H18.8684L16.7814 23.833L16 24.7884Z" fill="#DDDDDD"/>
<path d="M23.5768 15.6429L19.171 20.9623L20.3977 17.1281L23.5768 15.6429Z" fill="#DDDDDD"/>
<path d="M19.0388 8.48697L22.2296 9.91769L16 10.8452L9.77045 9.91769L12.9612 8.48697H19.0388Z" fill="#DDDDDD"/>
<path d="M19.6974 15.3043L21.5802 11.4272L17.2603 12.0696L19.6974 15.3043Z" fill="#DDDDDD"/>
<path d="M21.3078 15.1664L24.8719 13.5038L22.9913 11.702L21.3078 15.1664Z" fill="#DDDDDD"/>
<path d="M13.5652 15.9304L16 12.7038L18.4347 15.9304H13.5652Z" fill="#DDDDDD"/>
<path d="M10.4197 11.4214L12.3026 15.3044L14.7374 12.0696L10.4197 11.4214Z" fill="#DDDDDD"/>
<path d="M9.00869 11.702L7.12811 13.5038L10.6922 15.1664L9.00869 11.702Z" fill="#DDDDDD"/>
<path fill-rule="evenodd" clip-rule="evenodd" d="M16 32C19.1645 32 22.2579 31.0616 24.8891 29.3035C27.5203 27.5454 29.5711 25.0466 30.7821 22.1229C31.9931 19.1993 32.3099 15.9823 31.6926 12.8786C31.0752 9.77486 29.5513 6.92394 27.3137 4.6863C25.0761 2.44866 22.2251 0.924806 19.1214 0.307443C16.0177 -0.309921 12.8007 0.00693213 9.87706 1.21793C6.95344 2.42894 4.45459 4.4797 2.69648 7.11088C0.938383 9.74207 0 12.8355 0 16C0 20.2435 1.68571 24.3131 4.68629 27.3137C7.68687 30.3143 11.7565 32 16 32ZM12.5275 7.15711C12.6172 7.11669 12.7144 7.09575 12.8127 7.09566H19.1896C19.2879 7.09575 19.3851 7.11669 19.4748 7.15711L23.8168 9.10493C23.9399 9.15952 24.0443 9.24901 24.1171 9.36232L26.6667 13.3333C26.7468 13.4576 26.7853 13.6041 26.7766 13.7517C26.7678 13.8993 26.7123 14.0403 26.618 14.1542L16.531 26.3281C16.4657 26.4069 16.3839 26.4703 16.2913 26.5138C16.1987 26.5573 16.0977 26.5799 15.9954 26.5799C15.8931 26.5799 15.792 26.5573 15.6994 26.5138C15.6068 26.4703 15.525 26.4069 15.4597 26.3281L5.37275 14.1542C5.28125 14.0406 5.22777 13.9012 5.21986 13.7555C5.21196 13.6099 5.25003 13.4654 5.3287 13.3426L7.88406 9.36232C7.95683 9.24901 8.06124 9.15952 8.18435 9.10493L12.5275 7.15711Z" fill="#DDDDDD"/>
</svg>
